<?xml version="1.0" standalone="no"?><!DOCTYPE svg PUBLIC "-//W3C//DTD SVG 1.1//EN" "http://www.w3.org/Graphics/SVG/1.1/DTD/svg11.dtd"><svg t="1728486268871" class="icon" viewBox="0 0 1063 1024" version="1.1" xmlns="http://www.w3.org/2000/svg" p-id="1896" xmlns:xlink="http://www.w3.org/1999/xlink" width="207.6171875" height="200"><path d="M528.151216 920.890293c-243.545713 0-440.960457-197.423346-440.960457-440.973361 0-243.537111 197.419045-440.96906 440.960457-440.96906 243.571521 0 440.986265 197.427647 440.986265 440.96906 0 243.550015-197.419045 440.973361-440.986265 440.973361z" fill="#FFE587" p-id="1897"></path><path d="M524.09083 827.776704c-195.423262 0-353.834217-158.415256-353.834216-353.842819s158.419557-353.838518 353.834216-353.838518c195.440467 0 353.868627 158.415256 353.868627 353.838518 0 195.436166-158.423859 353.842819-353.868627 353.842819z" fill="#EDCD8C" p-id="1898"></path><path d="M522.193977 51.219356c-243.53281 0-440.960457 197.43625-440.960457 440.97336 0 243.550015 197.414744 440.96906 440.960457 440.96906 243.571521 0 440.986265-197.410442 440.986264-440.96906 0-243.541412-197.414744-440.973361-440.986264-440.97336z m-2.963566 828.408989c-225.471836 0-408.240803-182.781871-408.240803-408.258009 0-225.471836 182.77757-408.249406 408.240803-408.249405 225.497644 0 408.266611 182.773268 408.266611 408.249405 0 225.48474-182.794775 408.258008-408.266611 408.258009z" fill="#C29379" opacity=".39" p-id="1899"></path><path d="M105.161406 510.064435c0-234.280808 189.917654-432.009543 424.18986-432.009544 173.022321 0 321.716739 111.419734 387.732415 259.924896-51.025799-176.988079-214.095014-306.48169-407.539698-306.48169-234.263603 0-424.181258 189.917654-424.181258 424.194162a422.675818 422.675818 0 0 0 36.470349 172.067442 424.103835 424.103835 0 0 1-16.671668-117.695266z" fill="#FFFFFF" opacity=".71" p-id="1900"></path><path d="M528.142614 938.082413c-252.629966 0-458.161179-205.535515-458.16118-458.174084 0-94.356651 28.452808-184.966909 82.287327-262.045415l28.211938 19.704054c-49.778435 71.26751-76.089217 155.068879-76.089218 242.341361 0 233.665729 190.094006 423.764036 423.751133 423.764036 233.674331 0 423.785542-190.098307 423.785542-423.764036s-190.111211-423.764036-423.785542-423.764035c-72.446054 0-143.945831 18.602932-206.765674 53.791506l-16.817911-30.018465c67.94694-38.066115 145.257714-58.18739 223.583585-58.18739 252.651472 0 458.19559 205.535515 458.195589 458.174083s-205.544117 458.178385-458.195589 458.178385z" fill="#6E6E96" p-id="1901"></path><path d="M730.564019 637.446129c3.617356-13.002697 15.054396-28.977561 25.381711-35.489662l0.051615-0.025808c10.323014-6.525005 10.323014-17.183517 0-23.691318l-0.051615-0.043012c-10.327315-6.516403-22.340723-21.192288-26.689293-32.620725-4.344268-11.424136-11.454245-11.424136-15.78991 0-4.34857 11.428437-16.361978 26.112925-26.67639 32.620725l-0.055916 0.043012c-10.335918 6.5078-10.335918 17.153409 0 23.691318l0.055916 0.025808c10.314412 6.520704 21.751451 22.486966 25.398917 35.489662l2.585054 9.196085c3.634561 12.994094 9.587499 12.994094 13.21776 0l2.572151-9.196085z" fill="#FFFFFF" p-id="1902"></path><path d="M524.09083 113.518747c-195.41466 0-353.834217 158.410955-353.834216 353.842819 0 28.637762 3.4238 56.471189 9.858478 83.126072a355.193414 355.193414 0 0 1-1.612971-33.648725c0-195.423262 158.419557-353.834217 353.838518-353.834217 166.875826 0 306.670946 115.514529 343.997245 270.927509-16.848019-179.740883-168.080178-320.413458-352.247054-320.413458z" fill="#D4AC88" opacity=".61" p-id="1903"></path><path d="M241.777897 219.725358c5.002361-18.749175 20.727752-41.7824 34.96491-51.16774l0.060217-0.038712c14.219952-9.402545 14.219952-24.770933 0-34.164876l-0.060217-0.038711c-14.224253-9.402545-30.741076-30.556122-36.737027-47.038535-5.978746-16.482413-15.764103-16.482413-21.729945 0s-22.508472 37.635989-36.715521 47.038535l-0.073121 0.038711c-14.198446 9.38534-14.198446 24.758029 0 34.164876l0.081724 0.038712c14.202747 9.38534 29.941043 32.427168 34.960608 51.16774l3.548536 13.247868c4.993758 18.753476 13.191952 18.753476 18.202915 0l3.496921-13.247868z" fill="#7FE1FF" p-id="1904"></path><path d="M95.044852 553.025379L33.850884 496.093956S43.438384 994.235309 522.78755 994.235309c492.747578 0 511.337607-518.993842 511.337606-518.993842L968.212711 531.532003l-58.832579-60.303608s-3.83672 261.774436-191.85322 349.210367l-194.722157 113.239165-159.443256-94.369556s-214.787516-96.88579-214.787517-343.214415l-53.52913 56.931423z" fill="#FF9E9E" p-id="1905"></path><path d="M148.672911 496.777855c-0.047314-2.597959-0.107531-5.208821-0.107531-7.849792l-35.300408 37.545663 4.008771 3.716285 31.399168-33.412156z m798.652901 6.168001l-37.937078-38.896257s-0.081724 5.290545-0.752719 14.619969l30.491603 31.274432 8.198194-6.998144z m49.473045-3.010879c-16.91684 119.205007-97.827765 445.536993-476.923257 445.536993-370.776864 0-442.939035-316.589642-456.888008-429.445994L33.850884 488.923762s9.587499 498.141353 488.936666 498.141353c492.747578 0 511.337607-518.993842 511.337606-518.993842l-37.326299 31.863704z" fill="#DE8989" opacity=".6" p-id="1906"></path><path d="M37.395119 539.674281l38.831739 36.117646 13.759717-14.650078L35.270299 510.232184s0.223665 10.92519 2.12482 29.442097z m938.744806 0.421523l12.899467 13.22206 44.328743-37.872558c1.823733-16.491015 2.176436-26.078515 2.176436-26.078515l-59.404646 50.729013z m-257.202201 294.485487l-194.722157 113.239165-159.443256-94.369555S149.984794 756.565111 149.984794 510.236485l-17.617944 18.736271c7.208905 248.130852 224.332003 346.113462 224.332003 346.113462l166.699475 98.662209 203.56554-118.379166c172.286806-80.10659 196.653421-300.21476 200.042811-353.391187l-16.215735-16.607149c0.017205-0.008603-3.819515 261.778737-191.85322 349.210366z" fill="#FFBABA" p-id="1907"></path><path d="M522.968203 1011.109136c-256.402167 0-380.583727-140.612358-439.609863-258.57-63.331692-126.555853-66.428597-251.193346-66.527526-256.432277a17.205024 17.205024 0 0 1 28.921645-12.929575l48.668711 45.27502 41.791003-44.457781a17.196421 17.196421 0 0 1 29.738883 11.785441c0 232.512992 202.606359 326.611568 204.658059 327.527735 0.576368 0.262377 1.139833 0.554862 1.686092 0.877457l150.759021 89.21665 185.99921-108.163683c0.451632-0.266678 0.920469-0.503247 1.393607-0.726912 176.196648-81.926022 181.870005-331.351552 181.904415-333.859184a17.205024 17.205024 0 0 1 29.52382-11.763935l47.589096 48.776242 53.66677-45.838484a17.205024 17.205024 0 0 1 28.366783 13.695198c-0.193557 5.453993-5.552921 135.07234-72.755744 266.703676-62.626286 122.667518-192.532818 268.884412-455.773982 268.884412zM55.124896 538.895753c6.02606 46.285815 21.252506 123.209476 59.512177 199.25138 79.633452 158.294821 217.015567 238.551955 408.33113 238.551956 197.363128 0 340.392792-84.149771 425.123232-250.113732 41.537229-81.358256 58.2218-163.232663 64.824228-210.783047l-33.351938 28.487218a17.205024 17.205024 0 0 1-23.489159-1.071012l-32.319637-33.119671c-3.182929 27.085009-9.746646 65.753299-23.235384 107.871197-33.407855 104.314059-93.857706 179.474205-174.841753 217.406982l-194.051161 112.84775a17.187819 17.187819 0 0 1-17.411484-0.06882l-158.699139-93.913622c-7.819683-3.673273-59.598202-29.106599-111.690713-82.472281-45.739556-46.862183-99.320301-124.026715-110.271298-234.710934l-25.78603 27.429109a17.196421 17.196421 0 0 1-24.254782 0.812938l-28.388289-26.405411z" fill="#6E6E96" p-id="1908"></path><path d="M746.895888 943.144991a40.414601 40.414601 0 0 0 16.413592-55.533515l-21.566497-38.616676a40.603856 40.603856 0 0 0-55.985147-15.312471s-50.952678 47.890184-154.397883 47.890183c-58.94011 0-122.43525-29.381879-122.43525-29.381879-20.68474-9.570294-46.81487-1.16564-58.075558 18.620137l-21.187987 37.266081c-11.256387 19.807284-3.475415 43.640543 17.325459 52.961365 0 0 64.140328 46.066451 184.347528 46.066451 137.928374 0.017205 215.561742-63.959676 215.561743-63.959676z" fill="#FFE587" p-id="1909"></path><path d="M752.629462 892.962238s-77.633368 63.976881-215.527332 63.976881c-120.2072 0-184.334624-46.066451-184.334625-46.066451-7.733658-3.475415-13.652186-8.920805-17.476003-15.432907-11.049926 19.75997-3.247448 43.429781 17.476003 52.711892 0 0 64.127425 46.066451 184.334625 46.066451 137.906868 0 215.527332-63.976881 215.527332-63.976881a40.410299 40.410299 0 0 0 17.007166-54.359272 40.324274 40.324274 0 0 1-17.007166 17.080287z" fill="#D4AC88" opacity=".61" p-id="1910"></path><path d="M531.579317 1023.995699h-0.017205v-17.205024 17.205024h-0.038711c-115.82422 0-182.123779-41.046885-192.907028-48.281598-13.755416-6.632537-23.833259-18.000756-28.474314-32.173394-4.813105-14.697392-3.127013-30.422783 4.748587-44.28143l21.187986-37.266082c10.981106-19.291133 31.962633-31.274432 54.767892-31.274432 8.959516 0 17.53622 1.871046 25.493544 5.552922 0.584971 0.270979 60.884278 27.786113 115.204839 27.786113 94.520099 0 142.216726-42.862015 142.689864-43.292141 0.911866-0.834444 1.978578-1.638779 3.049591-2.26246a57.942219 57.942219 0 0 1 29.136707-7.897106c20.947116 0 40.311371 11.376822 50.531155 29.691569l21.566497 38.608074a57.318537 57.318537 0 0 1 4.980855 44.513697 57.198101 57.198101 0 0 1-26.857042 33.782064c-11.626295 9.067048-90.96296 66.794203-225.063217 66.794204z m-140.732793-158.862587c-10.305809 0-20.061058 5.449691-24.856958 13.880153l-21.183685 37.257479c-3.019482 5.312051-3.716285 11.20047-1.961373 16.568438 1.754912 5.363666 5.793792 9.69073 11.368219 12.189759 1.058109 0.473138 2.060302 1.049506 3.002277 1.724804 0.554862 0.395716 61.873567 42.836208 174.308397 42.836208h0.043012c130.220523 0.004301 203.84082-59.434754 204.572034-60.036931 0.894661-0.739816 1.866745-1.385004 2.894745-1.926962a23.123552 23.123552 0 0 0 11.475751-13.966178 23.175167 23.175167 0 0 0-2.034494-17.983552L726.912253 857.068257a23.506364 23.506364 0 0 0-20.491184-12.05642c-3.638863 0-7.251918 0.868854-10.529474 2.524837-10.576788 9.036939-64.974772 50.931172-164.346688 50.931172-62.015508 0-126.925761-29.704473-129.66136-30.969043a26.044105 26.044105 0 0 0-11.037023-2.365691z" fill="#6E6E96" p-id="1911"></path><path d="M646.35403 440.52603s-16.792103-41.580241 63.108027-45.399756c48.83646-2.339883 58.875591 73.271895 46.935305 150.58697-14.275868 92.511413-47.98051 121.16638-152.066602 86.958491" fill="#A8E1FF" p-id="1912"></path><path d="M674.742319 663.860142c-20.82238 0-45.640627-4.933541-75.783828-14.843634a17.205024 17.205024 0 0 1-10.972504-21.717041 17.196421 17.196421 0 0 1 21.717042-10.972504c46.492275 15.278061 76.682791 17.15771 95.023346 5.918528 17.149107-10.516571 27.846331-34.930499 34.672424-79.156013 8.826177-57.163691 4.047482-105.746377-12.168253-123.76864-4.666863-5.183013-9.884286-7.355148-16.938346-7.002444-35.390734 1.690394-44.586819 11.196169-46.565397 14.069408-2.580754 3.746394-1.380703 7.720754-1.23446 8.163784l-0.176352-0.460235-31.906716 12.886563c-0.817239-2.034494-7.677742-20.387953 4.150712-38.857546 11.673609-18.228723 36.599387-28.379687 74.089133-30.17331 17.36417-0.851649 32.607821 5.518511 44.165296 18.35776 33.958416 37.730617 25.717209 118.895317 20.598715 152.040795-5.724972 37.106935-16.663065 82.373352-50.690302 103.243046-13.351098 8.168085-29.00767 12.271483-47.98051 12.271483z" fill="#6E6E96" p-id="1913"></path><path d="M448.380123 384.614004c-4.782997 23.613895-36.143454 21.880489-50.191355 17.837309 0 0-135.601395-37.278985-77.246255 149.623489 48.225682 154.492511 228.573042 80.248532 274.854555 80.248531 62.923073 0 61.525165-153.236544 50.552661-191.827412-12.460738-43.808292-37.554266-80.867913-69.921216-96.322325-32.354047-15.467316-72.114857-35.493964-83.070156-113.08432-6.348654-44.922317-73.822456-25.179552-73.822456 47.984811 0.008603 37.016609 31.605629 91.917839 28.844222 105.539917z" fill="#FFDFD1" p-id="1914"></path><path d="M489.642072 242.431688c-0.817239-5.892721-2.735599-10.641307-5.380872-14.336086a161.950888 161.950888 0 0 0 6.88201 23.450447 207.806578 207.806578 0 0 1-1.501138-9.114361z m152.987071 209.406645c-4.610946-16.207132-10.9596-31.467988-18.757777-45.077162 0.163448 0.550561 0.3441 1.092519 0.503247 1.647381 10.245592 36.023018 11.561776 179.091393-47.201983 179.091393-43.210417 0-211.591683 69.310438-256.621532-74.932179-7.656236-24.517159-11.738127-44.896509-13.093023-61.830554-7.776671 22.861175-7.247616 58.251909 9.75955 112.680001 48.225682 154.492511 228.585945 80.252833 274.854555 80.252834 62.927374-0.017205 61.529466-153.253749 50.556963-191.831714z m-203.092402-95.634124c2.02159-9.970311-15.622162-43.606133-23.377326-74.312799-0.20646 2.778611-0.357004 5.591633-0.357004 8.533692 0 22.491267 11.682211 51.567757 20.2073 74.003108a21.351434 21.351434 0 0 0 3.52703-8.224001z" fill="#E3BBAA" opacity=".53" p-id="1915"></path><path d="M396.03814 449.765128c14.047902 4.034578 75.51715-15.729693 80.300147-39.343588 2.77431-13.622078-28.83562-68.523308-28.844222-105.509808 0-73.181568 37.369312-71.418054 43.713664-26.482833 10.968203 77.590356 50.716109 97.625606 83.070156 113.08432 32.354047 15.454413 57.447574 52.514034 69.921216 96.322325 2.417306 8.512185 4.370076 22.607401 5.27334 39.399505 1.737707-33.554098-1.045205-65.409199-5.27334-80.261436-12.460738-43.808292-37.554266-80.867913-69.921216-96.322326-32.354047-15.458714-72.114857-35.493964-83.070156-113.084319-6.348654-44.922317-73.822456-25.179552-73.822456 47.989112 0.008603 36.999404 31.618532 91.88773 28.844223 105.509808-4.782997 23.613895-36.143454 21.880489-50.191356 17.837309 0 0-105.07108-28.861427-90.403797 91.75009 11.591885-72.540681 90.403797-50.888159 90.403797-50.888159z" fill="#FFE8DE" p-id="1916"></path><path d="M462.483942 667.361364c-81.999143 0-135.145461-37.059621-157.963624-110.155164-21.080455-67.525417-20.628823-114.89945 1.385004-144.836191 14.508136-19.72556 37.623086-30.151804 66.845818-30.151804 16.263049 0 28.642063 3.273256 29.996959 3.647465 4.004469 1.152737 8.959516 1.802226 13.454329 1.802226 6.030361 0 13.3554-0.997891 15.071601-5.608838-0.6839-4.744285-5.557223-17.488907-9.165977-26.934464-8.808972-23.041828-19.768572-51.722603-19.777175-76.037603 0-32.018549 11.054228-52.621565 20.327736-64.265065 12.563969-15.777007 29.411988-24.826849 46.229899-24.826849 21.893393 0 38.18655 15.192036 41.50712 38.6984 9.824069 69.551308 43.63194 85.711127 73.456848 99.96979 35.717629 17.05448 64.531743 56.105582 79.052783 107.135683 8.512185 29.941043 14.047902 141.756492-22.357928 189.952064-11.751031 15.561944-27.22695 23.785945-44.741664 23.785946-7.152989 0-20.51269 2.632369-35.971404 5.681959-27.463519 5.406679-61.632696 12.142445-97.350325 12.142445zM372.75114 416.628252c-18.091082 0-31.252926 5.428185-39.124224 16.12971-10.219784 13.897358-17.867417 44.986836 3.742093 114.189742 18.314748 58.677733 58.071256 86.003612 125.114933 86.003613 32.358348 0 64.699492-6.374461 90.683379-11.497257 17.94484-3.539934 32.117478-6.33575 42.629747-6.33575 4.142109 0 10.439148-1.049506 17.286748-10.116554 26.087117-34.539085 25.196757-129.966749 16.718981-159.800261-11.639199-40.922149-34.362734-72.884782-60.785348-85.496064-31.979838-15.286664-80.291545-38.380107-92.692066-126.20315-1.286076-9.101458-5.441089-9.101458-7.436871-9.101458-10.860671 0-32.147587 16.512522-32.147587 54.681867 0.004301 17.962045 9.707935 43.352359 17.510413 63.757517 8.894997 23.274096 13.080119 34.913294 10.989709 45.197597-4.318461 21.312723-22.650414 34.044441-49.038619 34.044441-7.759466 0-15.845827-1.09682-22.770849-3.088302-0.012904-0.008603-9.105759-2.365691-20.680439-2.365691z" fill="#6E6E96" p-id="1917"></path><path d="M642.736674 573.813349s109.677725 13.209157 113.660688-23.798849c0 0-13.093023 93.08348-54.234536 96.606208-41.128609 3.535632-80.209821-4.284051-80.209821-4.284051l20.783669-68.523308z" fill="#6E6E96" opacity=".15" p-id="1918"></path></svg>