<?xml version="1.0" standalone="no"?><!DOCTYPE svg PUBLIC "-//W3C//DTD SVG 1.1//EN" "http://www.w3.org/Graphics/SVG/1.1/DTD/svg11.dtd"><svg t="1728486285795" class="icon" viewBox="0 0 1067 1024" version="1.1" xmlns="http://www.w3.org/2000/svg" p-id="2246" xmlns:xlink="http://www.w3.org/1999/xlink" width="208.3984375" height="200"><path d="M530.204752 911.524344c-244.490331 0-442.678586-198.192573-442.678587-442.691541 0-244.486013 198.183937-442.687222 442.678587-442.687222 244.520557 0 442.708812 198.192573 442.708812 442.687222 0 244.498967-198.188255 442.69154-442.708812 442.691541z" fill="#FFE587" p-id="2247"></path><path d="M526.132863 818.047954c-196.184696 0-355.212873-159.032495-355.212873-355.22151 0-196.193332 159.036813-355.221509 355.212873-355.221509 196.201968 0 355.247417 159.032495 355.247418 355.221509 0 196.19765-159.041131 355.221509-355.247418 355.22151z" fill="#EDCD8C" p-id="2248"></path><path d="M524.232937 38.464878c-244.486013 0-442.682904 198.205527-442.682905 442.69154 0 244.498967 198.179619 442.687222 442.678587 442.687223 244.516239 0 442.704494-198.179619 442.704494-442.687223 0-244.490331-198.183937-442.69154-442.700176-442.69154z m-2.983749 831.636747c-226.346032 0-409.82281-183.489732-409.822809-409.848718 0-226.35035 183.485414-409.840082 409.822809-409.840081 226.380576 0 409.857354 183.485414 409.857354 409.840081 0.004318 226.363304-183.502686 409.848718-409.857354 409.848718z" fill="#C29379" opacity=".39" p-id="2249"></path><path d="M105.57115 499.097771c0-235.193644 190.657637-433.692797 425.842646-433.692797 173.696474 0 322.970255 111.853862 389.24315 260.93765-51.224613-177.677684-214.9292-307.675845-409.12761-307.675845-235.176372 0-425.829691 190.657637-425.829691 425.846964a424.322704 424.322704 0 0 0 36.61245 172.737874 425.600837 425.600837 0 0 1-16.740945-118.153846z" fill="#FFFFFF" opacity=".71" p-id="2250"></path><path d="M530.196115 928.78345c-253.614297 0-459.946328-206.33635-459.946328-459.959283 0-94.724296 28.56367-185.687602 82.607946-263.066431l28.321861 19.780827C131.207206 297.083754 104.798226 381.211642 104.798226 468.824167c0 234.576168 190.834676 425.415162 425.402207 425.415162 234.584804 0 425.436752-190.838994 425.436753-425.415162s-190.851948-425.415162-425.436753-425.415162c-72.728328 0-144.502374 18.675415-207.566984 54.001097l-16.883438-30.135427c68.211684-38.210115 145.823687-58.40979 224.450422-58.40979 253.635887 0 459.980873 206.33635 459.980873 459.959282s-206.349304 459.959282-459.985191 459.959283z" fill="#6E6E96" p-id="2251"></path><path d="M763.636646 626.975787c3.631451-13.049042 15.113053-29.090467 25.476289-35.627942l0.056134-0.025908c10.358918-6.550429 10.358918-17.25047 0-23.783627l-0.056134-0.04318c-10.363236-6.546111-22.423452-21.279178-26.793284-32.752145-4.361195-11.46433-11.498874-11.46433-15.851433 0-4.365513 11.472966-16.425729 26.214669-26.78033 32.752145l-0.056134 0.04318c-10.37619 6.533157-10.37619 17.215926 0 23.783627l0.056134 0.025908c10.3546 6.546111 21.84052 22.578901 25.497879 35.627942l2.599445 9.231916c3.648723 13.044724 9.624856 13.044724 13.264943 0l2.586491-9.231916z" fill="#FFFFFF" p-id="2252"></path><path d="M526.132863 101.007008c-196.180378 0-355.212873 159.028177-355.212873 355.221509 0 28.749344 3.43714 56.69122 9.896891 83.44996a356.646454 356.646454 0 0 1-1.619256-33.779832c0-196.184696 159.036813-355.212873 355.221509-355.212873 167.52603 0 307.865838 115.960295 345.337573 271.983132-16.917983-180.441213-168.739393-321.661896-353.623844-321.661896z" fill="#D4AC88" opacity=".61" p-id="2253"></path><path d="M242.719945 207.627436c5.021852-18.81791 20.808515-41.945198 35.101144-51.367107l0.06477-0.038862c14.275358-9.443499 14.275358-24.871767 0-34.297994l-0.06477-0.038862c-14.279676-9.443499-30.856536-30.675179-36.880167-47.226131-6.002041-16.546634-15.825525-16.546634-21.814612 0s-22.591855 37.782632-36.858576 47.226131l-0.073406 0.038862c-14.253768 9.421909-14.253768 24.854495 0 34.297994l0.082042 0.038862c14.262404 9.421909 30.057703 32.553516 35.096826 51.367107l3.562363 13.299487c5.013215 18.826546 13.243352 18.826546 18.273839 0l3.510547-13.299487z" fill="#7FE1FF" p-id="2254"></path><path d="M91.097164 546.54412L29.664763 489.390873S39.289619 989.473152 520.50649 989.473152c494.671806 0 513.329949-521.016015 513.329948-521.016016L967.667175 524.966999l-59.066128-60.538571s-3.851669 262.790079-192.600743 350.571007l-195.48086 113.680382-160.060183-94.73725s-215.628718-97.258971-215.628718-344.551694l-53.733379 57.153247z" fill="#FF9E9E" p-id="2255"></path><path d="M144.934176 490.077438c-0.047498-2.608081-0.10795-5.229116-0.107951-7.880378l-35.437949 37.691954 4.028708 3.730765 31.517192-33.542341z m801.764718 6.192033l-38.084892-39.04781s-0.082042 5.306841-0.755653 14.672615l30.610409 31.396288 8.230136-7.021093z m49.66581-3.02261c-16.982753 119.669469-98.208935 447.272954-478.781511 447.272954-372.221534 0-444.664873-317.823181-458.668195-431.11926L29.664763 482.192742s9.624856 500.082278 490.841727 500.082278c494.671806 0 513.329949-521.016015 513.329948-521.016015l-37.471734 31.987856z" fill="#DE8989" opacity=".6" p-id="2256"></path><path d="M33.222808 533.141002l38.98304 36.254054 13.809012-14.707159L31.089708 503.584189s0.224537 10.967758 2.1331 29.556813z m942.402469 0.423165l12.949727 13.273579 44.501464-38.024441c1.830838-16.55527 2.184916-26.175807 2.184915-26.175807l-59.636106 50.926669z m-258.204346 295.632901l-195.48086 113.680383-160.060183-94.73725S146.25117 750.881229 146.25117 503.588507l-17.68659 18.809273c7.236993 249.097653 225.206076 347.462036 225.206076 347.462036l167.348992 99.04663 204.358699-118.840411c172.958093-80.418713 197.419649-301.384497 200.822244-354.768117l-16.283235-16.66322c0.02159-0.017272-3.830079 262.790079-192.596425 350.56237z" fill="#FFBABA" p-id="2257"></path><path d="M520.687846 1006.412725c-257.401196 0-382.066609-141.16023-441.322729-259.577476-63.578454-127.048957-66.687425-252.17208-66.786739-257.431422a17.27206 17.27206 0 0 1 29.034333-12.979953l48.858341 45.451426 41.953834-44.631003a17.263424 17.263424 0 0 1 29.854756 11.831361c0 233.41894 203.4001 327.884156 205.459793 328.803893 0.578614 0.263399 1.144274 0.557024 1.692662 0.880875l151.34211 89.564268 186.723925-108.585124c0.453392-0.267717 0.924055-0.505208 1.399037-0.729745 73.492616-34.172771 126.530795-100.428394 157.633458-196.923077 23.675677-73.458072 24.966763-137.606504 24.975399-138.249888a17.285014 17.285014 0 0 1 29.634537-11.796817l47.778837 48.966291 53.875874-46.017087a17.27206 17.27206 0 0 1 28.477309 13.74856c-0.194311 5.475243-5.574557 135.598627-73.039225 267.742842-62.865981 123.145472-193.274354 269.932076-457.545512 269.932076zM51.021666 532.359441c6.049539 46.46616 21.335312 123.689541 59.744056 200.02773 79.943731 158.91159 217.861132 239.481433 409.922124 239.481433 198.132121 0 341.723394-84.477647 426.779655-251.088258 41.699071-81.675255 58.45297-163.868672 65.076805-211.604328l-33.481889 28.598214a17.27206 17.27206 0 0 1-23.58068-1.070868l-32.449883-33.257352c-3.195331 27.186223-9.784622 66.013814-23.3216 108.295818-33.542341 104.720501-94.223407 180.173496-175.522994 218.254071l-194.807249 113.287443a17.254788 17.254788 0 0 1-17.479325-0.069088l-159.313166-94.283859c-7.850151-3.683267-59.834735-29.21569-112.125897-82.789302-45.917772-47.044774-99.707286-124.509964-110.70527-235.625446l-25.886501 27.535982a17.267742 17.267742 0 0 1-24.349287 0.816104l-28.498899-26.508294z" fill="#6E6E96" p-id="2258"></path><path d="M745.488028 938.183769a40.567752 40.567752 0 0 0 16.473228-55.749893l-21.650528-38.767139a40.762062 40.762062 0 0 0-56.203284-15.376452s-51.155524 48.07678-154.999468 48.07678c-59.16976 0-122.912299-29.496361-122.912299-29.496361-20.765334-9.607584-46.997276-1.170182-58.301839 18.692687l-21.270543 37.411283c-11.300245 19.884459-3.493274 43.810581 17.388647 53.167719 0 0 64.390241 46.245941 185.065808 46.245942 138.474425 0.02159 216.410279-64.204566 216.410278-64.204566z" fill="#FFE587" p-id="2259"></path><path d="M751.243943 887.805487s-77.935854 64.226156-216.367099 64.226156c-120.675567 0-185.048536-46.245941-185.048536-46.245941-7.768109-3.493274-13.709698-8.955563-17.544095-15.493038-11.092981 19.836961-3.260101 43.598998 17.544095 52.917274 0 0 64.372969 46.245941 185.048536 46.245942 138.448517 0 216.367099-64.226156 216.367099-64.226157a40.57207 40.57207 0 0 0 17.073431-54.571074 40.481391 40.481391 0 0 1-17.073431 17.146838z" fill="#D4AC88" opacity=".61" p-id="2260"></path><path d="M529.328194 1019.34518h-0.060452c-116.27551 0-182.833394-41.206818-193.658657-48.469719-13.804694-6.658379-23.921803-18.070893-28.580942-32.294435-4.831859-14.758975-3.139197-30.545639 4.767089-44.458283l21.270542-37.411283c11.023892-19.366298 32.091488-31.396288 54.976968-31.396287 8.994425 0 17.608865 1.878337 25.601511 5.583193 0.582932 0.267717 61.117185 27.890059 115.649397 27.89006 95.894479 0 142.714716-42.968568 143.176744-43.40037 0.954281-0.898147 2.003559-1.684026 3.134879-2.340364a58.176617 58.176617 0 0 1 29.241598-7.923558 58.163663 58.163663 0 0 1 50.732359 29.807258l21.650527 38.758504a57.550505 57.550505 0 0 1 5.000262 44.691456 57.442554 57.442554 0 0 1-26.957368 33.91369c-11.662959 9.09374-91.326019 67.050138-225.944457 67.050138z m-141.285452-159.481569c-10.341646 0-20.139222 5.470925-24.953809 13.934235l-21.266225 37.402647c-3.031247 5.332749-3.730765 11.244111-1.969014 16.637312 1.76175 5.380247 5.812048 9.728488 11.408195 12.232936 1.062232 0.474982 2.068329 1.053596 3.013975 1.731524 0.557024 0.397257 62.114647 43.003112 174.98756 43.003112h0.056134c130.71927 0 204.635052-59.662014 205.364797-60.266536 0.902465-0.742699 1.878337-1.390401 2.906024-1.934471a23.213649 23.213649 0 0 0 11.516146-14.016277 23.239557 23.239557 0 0 0-2.042421-18.057939l-21.64621-38.754185a23.597952 23.597952 0 0 0-20.575341-12.103396 23.446822 23.446822 0 0 0-10.566183 2.530357c-10.622317 9.076468-65.236572 51.133934-164.987038 51.133934-62.257141 0-127.420306-29.820212-130.166564-31.089708a26.072175 26.072175 0 0 0-11.080026-2.383545z" fill="#6E6E96" p-id="2261"></path><path d="M683.869954 707.252005c0.08636-0.056134 0.125222-0.103632 0.198628-0.164084l-7.362215-3.821444c2.098555 3.281691 5.190254 5.073668 7.163587 3.985528z" fill="#6E6E96" p-id="2262"></path><path d="M750.656693 397.836h-147.421353l-72.667875-157.784589-68.509627 157.784589H314.645122l122.502087 110.035978-35.295455 149.485363 128.715711-89.279279 139.109173 85.129667-41.522033-159.861554z" fill="#FFD28F" p-id="2263"></path><path d="M401.851754 657.357341l130.19679-193.15345 137.628094 189.003838-139.109173-85.129667z" fill="#EBC184" p-id="2264"></path><path d="M314.645122 397.836l217.403422 66.367891-94.901335 43.668087z" fill="#EBC184" p-id="2265"></path><path d="M750.656693 397.836l-218.608149 66.367891 96.106061 29.142284z" fill="#EBC184" p-id="2266"></path><path d="M532.048544 464.203891V243.259697l-69.990706 154.576303zM532.048544 464.203891l71.186796-66.367891h147.421353z" fill="#FFFFFF" opacity=".34" p-id="2267"></path><path d="M462.057838 397.836H314.645122l217.403422 66.367891z" fill="#FFFFFF" opacity=".34" p-id="2268"></path><path d="M530.567465 568.078062l1.481079-103.874171-130.19679 193.15345z" fill="#D9B27A" p-id="2269"></path><path d="M348.869709 410.949812l157.581642 28.982517 25.597193-165.323843v189.595405z" fill="#FFF3E0" p-id="2270"></path><path d="M401.851754 679.87579a17.276378 17.276378 0 0 1-16.810033-21.240316l32.942137-139.515067-114.880791-103.191924a17.27206 17.27206 0 0 1 11.542055-30.122473h136.082244l63.997302-147.391126a17.27206 17.27206 0 0 1 15.652804-10.393463h0.189993c6.740422 0 12.863367 3.91644 15.687348 10.048021l68.043282 147.736568h136.358598a17.27206 17.27206 0 1 1 10.622317 30.895398l-113.550843 88.532262 38.663507 148.876524a17.263424 17.263424 0 1 1-25.731051 19.07699l-129.50159-79.252848-119.462205 82.858391a17.237516 17.237516 0 0 1-9.845074 3.083063z m-42.135191-259.52566l88.968382 79.922141a17.276378 17.276378 0 0 1 5.267979 16.818669l-24.945174 105.65751 91.710322-63.612998a17.306604 17.306604 0 0 1 18.86109-0.539751l102.626264 62.801211-30.765857-118.460426a17.27206 17.27206 0 0 1 6.092719-17.962942l82.875663-64.619096h-97.176929a17.27206 17.27206 0 0 1-15.687348-10.048021L531.029492 287.592757l-53.133175 122.368229a17.27206 17.27206 0 0 1-15.842797 10.393462h-102.336957z" fill="#6E6E96" p-id="2271"></path></svg>