<?xml version="1.0" standalone="no"?><!DOCTYPE svg PUBLIC "-//W3C//DTD SVG 1.1//EN" "http://www.w3.org/Graphics/SVG/1.1/DTD/svg11.dtd"><svg t="1728486265551" class="icon" viewBox="0 0 1067 1024" version="1.1" xmlns="http://www.w3.org/2000/svg" p-id="1721" xmlns:xlink="http://www.w3.org/1999/xlink" width="208.3984375" height="200"><path d="M525.886736 928.796404c-244.490331 0-442.678586-198.192573-442.678586-442.69154 0-244.486013 198.188255-442.687222 442.678586-442.687223 244.520557 0 442.708812 198.196891 442.708813 442.687223 0 244.498967-198.188255 442.69154-442.708813 442.69154z" fill="#FFE587" p-id="1722"></path><path d="M521.814848 835.320014c-196.180378 0-355.208555-159.032495-355.208555-355.221509s159.036813-355.217191 355.208555-355.217191c196.206286 0 355.247417 159.032495 355.247417 355.217191 0 196.19765-159.041131 355.221509-355.247417 355.221509z" fill="#EDCD8C" p-id="1723"></path><path d="M519.914922 55.736938c-244.481695 0-442.678586 198.205527-442.678587 442.687223 0 244.503285 198.183937 442.687222 442.678587 442.687222 244.516239 0 442.704494-198.179619 442.704494-442.687222-0.004318-244.486013-198.188255-442.687222-442.704494-442.687223z m-2.983749 831.636747c-226.346032 0-409.827128-183.49405-409.827127-409.848717 0-226.35035 183.489732-409.840082 409.827127-409.840082 226.376258 0 409.857354 183.485414 409.857354 409.840082 0.004318 226.363304-183.502686 409.848718-409.857354 409.848717z" fill="#C29379" opacity=".39" p-id="1724"></path><path d="M101.253135 516.369831c0-235.193644 190.657637-433.692797 425.842646-433.692797 173.696474 0 322.970255 111.853862 389.243149 260.937651-51.224613-177.677684-214.9292-307.675845-409.127609-307.675846-235.176372 0-425.834009 190.657637-425.834009 425.846964a424.322704 424.322704 0 0 0 36.61245 172.737874 425.756285 425.756285 0 0 1-16.736627-118.153846z" fill="#FFFFFF" opacity=".71" p-id="1725"></path><path d="M525.882418 946.05551c-253.614297 0-459.946328-206.33635-459.946328-459.959282 0-94.724296 28.56367-185.687602 82.607946-263.066432l28.321861 19.780827c-49.972388 71.545192-76.385686 155.673079-76.385686 243.285605 0 234.576168 190.834676 425.415162 425.402207 425.415162 234.584804 0 425.436752-190.838994 425.436752-425.415162s-190.851948-425.415162-425.436752-425.415162c-72.728328 0-144.506692 18.675415-207.571302 54.001096l-16.883439-30.135427c68.211684-38.210115 145.828005-58.40979 224.454741-58.40979 253.635887 0 459.980873 206.33635 459.980873 459.959283s-206.344986 459.959282-459.980873 459.959282z" fill="#6E6E96" p-id="1726"></path><path d="M729.092525 644.247847c3.631451-13.05336 15.113053-29.090467 25.480607-35.627942l0.051816-0.025908c10.363236-6.550429 10.363236-17.25047 0-23.783627l-0.051816-0.04318c-10.367554-6.541793-22.42777-21.27486-26.793283-32.747826-4.361195-11.468648-11.498874-11.468648-15.851434 0-4.365513 11.472966-16.425729 26.214669-26.780329 32.747826l-0.056134 0.04318c-10.37619 6.533157-10.37619 17.220244 0 23.783627l0.056134 0.025908c10.3546 6.546111 21.836202 22.574583 25.497879 35.627942l2.595127 9.231917c3.648723 13.044724 9.624856 13.044724 13.26926 0l2.582173-9.231917z" fill="#FFFFFF" p-id="1727"></path><path d="M521.814848 118.279069c-196.17606 0-355.208555 159.028177-355.208555 355.221509 0 28.749344 3.43714 56.69122 9.896891 83.449959a356.577366 356.577366 0 0 1-1.619256-33.779832c0-196.184696 159.036813-355.212873 355.217191-355.212873 167.52603 0 307.865838 115.964613 345.337573 271.983133-16.917983-180.441213-168.739393-321.661896-353.623844-321.661896z" fill="#D4AC88" opacity=".61" p-id="1728"></path><path d="M238.40193 224.899497c5.021852-18.822228 20.808515-41.945198 35.101144-51.367108l0.060452-0.038862c14.275358-9.439181 14.275358-24.867449 0-34.297993l-0.060452-0.038863c-14.279676-9.439181-30.860854-30.675179-36.880167-47.221812-6.002041-16.546634-15.825525-16.546634-21.814612 0s-22.596173 37.782632-36.858576 47.221812l-0.073407 0.038863c-14.253768 9.421909-14.253768 24.854495 0 34.297993l0.082043 0.038862c14.258086 9.421909 30.057703 32.553516 35.096826 51.367108l3.562363 13.299486c5.013215 18.826546 13.243352 18.826546 18.273839 0l3.510547-13.299486z" fill="#7FE1FF" p-id="1729"></path><path d="M564.027763 644.56738h-60.45221v-183.364509l-2.551947 2.556265-42.748349-42.748349 105.752506-105.752507z" fill="#6E6E96" p-id="1730"></path><path d="M91.097164 569.947762L29.664763 515.186695s9.624856 479.113997 490.841727 479.113997c494.671806 0 513.329949-499.179813 513.329948-499.179813l-66.156308 54.147909-59.066128-57.999578s-3.851669 251.783458-192.600744 335.876801l-195.48086 108.917612-160.064501-90.764676s-215.628718-93.195719-215.628718-330.103616l-53.742015 54.752431z" fill="#FF9E9E" p-id="1731"></path><path d="M144.934176 515.851669c-0.047498-2.491495-0.10795-5.004579-0.107951-7.552208l-35.437949 36.11156 4.028708 3.575317 31.517192-32.134669z m801.764718 5.932953l-38.084892-37.411282s-0.082042 5.103894-0.755653 14.076729l30.610409 30.074975 8.230136-6.740422z m49.66581-2.897388c-16.982753 114.660572-98.208935 428.519815-478.781511 428.519815-372.221534 0-444.664873-304.502104-458.668195-413.039731l-29.250235-26.072175s9.624856 479.113997 490.841727 479.113997c494.671806 0 513.329949-499.175495 513.329948-499.175495l-37.471734 30.653589z" fill="#DE8989" opacity=".6" p-id="1732"></path><path d="M33.222808 557.110303l38.98304 34.738432 13.809012-14.09832L31.089708 528.788443s0.224537 10.505731 2.1331 28.32186z m942.402469 0.401576l12.949727 12.716554 44.501464-36.431093c1.830838-15.864387 2.184916-25.091986 2.184915-25.091985l-59.636106 48.806524z m-258.204346 283.240198l-195.48086 108.92193-160.060183-90.768995S146.25117 765.713611 146.25117 528.797079l-17.68659 18.03203c7.236993 238.656693 225.206076 332.897371 225.206076 332.897372l167.348992 94.897017 204.358699-113.857421c172.958093-77.050661 197.419649-288.745667 200.822244-339.896874l-16.283235-15.976656c0.02159-0.025908-3.830079 251.761868-192.596425 335.85953z" fill="#FFBABA" p-id="1733"></path><path d="M520.687846 1011.261856c-257.228475 0-381.898206-135.317956-441.184553-248.829936-63.707994-121.970971-66.825601-242.149967-66.924915-247.206363a17.263424 17.263424 0 0 1 28.75798-13.239034l49.147648 43.806263 42.199961-43.003112a17.263424 17.263424 0 0 1 29.599993 12.099078c0 222.97798 203.153973 313.366989 205.20503 314.252182 0.569978 0.250445 1.127002 0.52248 1.666754 0.829059l151.614145 85.97168 187.000278-104.193703c0.449074-0.250445 0.911101-0.4793 1.377447-0.690883 176.248421-78.51015 182.31955-317.965675 182.358412-320.375127a17.27206 17.27206 0 0 1 29.362502-12.047262l48.020646 47.13977 54.169499-44.328743a17.27206 17.27206 0 0 1 28.196638 14.011959c-0.194311 5.259342-5.587511 130.222698-73.177401 257.064391-62.878935 118.03726-193.291626 258.739781-457.390064 258.739781zM51.12098 556.980763c6.109991 44.505781 21.417355 117.929309 59.554064 190.515142 79.909187 152.102081 217.856814 229.22183 410.012802 229.22183 197.816906 0 341.265684-80.543935 426.360808-239.395073 41.677481-77.797677 58.595464-156.493502 65.353158-202.50627l-33.607112 27.501438a17.27206 17.27206 0 0 1-23.03661-1.040642l-32.76078-32.156258c-3.221239 26.111037-9.823484 63.276193-23.347508 103.72304-33.602793 100.536345-94.361583 172.949457-175.717305 209.453956l-194.820203 108.550581a17.27206 17.27206 0 0 1-16.926619-0.06477L352.868191 860.442225c-7.794017-3.506228-59.795873-27.959148-112.134533-79.33489-45.973906-45.127575-99.82819-119.431979-110.925489-226.056725l-26.188762 26.693969a17.285014 17.285014 0 0 1-23.822489 0.798833l-28.675938-25.562649z" fill="#6E6E96" p-id="1734"></path><path d="M745.488028 945.170317c20.229901-10.259604 27.618024-34.280722 16.473228-53.413846l-21.650528-37.152202c-11.153433-19.154715-36.435411-25.769914-56.203284-14.715795 0 0-51.155524 46.060267-154.999468 46.060266-59.16976 0-122.912299-28.265727-122.912299-28.265726-20.765334-9.206008-46.997276-1.127002-58.301839 17.906808l-21.270543 35.848161c-11.300245 19.051082-3.493274 41.971106 17.388647 50.939624 0 0 64.390241 44.315789 185.065808 44.315789 138.474425 0.008636 216.410279-61.523079 216.410278-61.523079z" fill="#FFE587" p-id="1735"></path><path d="M751.243943 896.907863s-77.935854 61.527397-216.367099 61.527396c-120.675567 0-185.048536-44.307153-185.048536-44.307152-7.768109-3.32919-13.709698-8.579896-17.544095-14.841018-11.092981 18.99063-3.260101 41.76816 17.544095 50.684861 0 0 64.372969 44.315789 185.048536 44.315788 138.448517 0 216.367099-61.527397 216.367099-61.527396 19.836961-10.069611 27.272583-33.360984 17.073431-52.282527-3.670313 6.757694-9.465089 12.565424-17.073431 16.430048z" fill="#D4AC88" opacity=".61" p-id="1736"></path><path d="M529.267742 1023.667513c-116.154605 0-182.626129-39.466658-193.39094-46.388436-13.938553-6.455433-24.465873-18.032031-29.008426-31.974902-4.667774-14.31422-2.862844-29.582721 5.086622-42.977203l21.270542-35.843843c11.049801-18.610645 32.052626-30.165653 54.812884-30.165654 8.899429 0 17.427509 1.779022 25.351066 5.298205 0.591568 0.263399 61.229454 26.771693 115.90416 26.771693 95.074056 0 143.042885-41.280224 143.517867-41.694753 0.915419-0.807469 1.990605-1.580394 3.057155-2.17628a59.523838 59.523838 0 0 1 28.991153-7.54789c20.894875 0 40.269808 10.980712 50.563956 28.658666l21.650528 37.130611c7.724929 13.26926 9.607584 28.611168 5.293886 43.206059-4.244609 14.387626-13.942871 26.227623-27.380533 33.520751-11.675913 8.705118-91.25693 64.182976-225.71992 64.182976zM388.038424 870.857278c-10.471187 0-20.324897 5.203208-25.10494 13.256306l-21.266224 35.835207c-2.798074 4.715272-3.493274 9.922799-1.951743 14.651025 1.6538 5.06935 5.665236 9.193054 11.304563 11.611143 1.04496 0.449074 2.042421 0.997461 2.979431 1.645163 0.557024 0.375667 62.209643 41.26727 175.272549 41.26727 67.961239 0 120.235129-15.700303 152.119353-28.874566 34.639117-14.309902 53.435436-28.831387 53.621111-28.978199a17.617501 17.617501 0 0 1 2.858526-1.822203c5.652282-2.862844 9.689626-7.578116 11.373652-13.282214 1.58903-5.375929 0.872239-11.067073-2.016513-16.028472l-21.64621-37.130612c-4.13234-7.103135-12.07317-11.503192-20.717836-11.503192a24.914947 24.914947 0 0 0-10.859808 2.491495c-10.626635 8.696482-65.171801 48.927429-164.710685 48.927429-62.114647 0-127.17418-28.520489-129.911801-29.73817a27.868469 27.868469 0 0 0-11.343425-2.32741z" fill="#6E6E96" p-id="1737"></path></svg>