<?xml version="1.0" standalone="no"?><!DOCTYPE svg PUBLIC "-//W3C//DTD SVG 1.1//EN" "http://www.w3.org/Graphics/SVG/1.1/DTD/svg11.dtd"><svg t="1728486187930" class="icon" viewBox="0 0 1024 1024" version="1.1" xmlns="http://www.w3.org/2000/svg" p-id="1362" xmlns:xlink="http://www.w3.org/1999/xlink" width="200" height="200"><path d="M537.193201 1007.203133c-164.096992 0-297.111382-133.026987-297.111382-297.123979s133.022788-297.123979 297.111382-297.12398c164.113789 0 297.140776 133.026987 297.140776 297.12398 0 164.101191-133.022788 297.123979-297.140776 297.123979z" fill="#FFE587" p-id="1363"></path><path d="M535.635291 953.772299c-124.666347 0-225.724697-101.05835-225.724697-225.737295 0-124.670546 101.062549-225.733095 225.724697-225.733095 124.683144 0 225.754092 101.062549 225.754092 225.733095 0 124.674745-101.066749 225.737295-225.754092 225.737295z" fill="#FFFFFF" p-id="1364"></path><path d="M766.831568 61.791474v256.416773c0 48.635328-39.795977 88.418708-88.431306 88.418708H391.035263c-48.631129 0-88.418708-39.783379-88.418708-88.418708V61.791474" fill="#FFA6A6" p-id="1365"></path><path d="M537.46615 935.497308c-124.666347 0-225.728896-101.062549-225.728896-225.737295 0-124.674745 101.062549-225.733095 225.728896-225.733095 124.678944 0 225.749892 101.05835 225.749892 225.733095 0 124.678944-101.062549 225.737295-225.749892 225.737295z" fill="#EDC39C" p-id="1366"></path><path d="M302.616555 61.791474h464.210814v49.819508H302.616555z" fill="#FFFFFF" opacity=".36" p-id="1367"></path><path d="M678.400262 423.423822H391.035263c-58.016379 0-105.215575-47.199196-105.215575-105.215575V61.791474a16.796867 16.796867 0 0 1 16.796867-16.796867h464.215013a16.796867 16.796867 0 0 1 16.796867 16.796867v256.416773c0 58.016379-47.203395 105.215575-105.228173 105.215575zM319.413422 78.588341v239.619906c0 39.489434 32.128207 71.621841 71.621841 71.621841h287.369199c39.497833 0 71.634438-32.128207 71.634438-71.621841V78.588341H319.413422z" fill="#6E6E96" p-id="1368"></path><path d="M533.182949 413.341502c-164.084394 0-297.107183 133.026987-297.107183 297.11978 0 164.101191 133.018589 297.123979 297.107183 297.12398 164.122187 0 297.140776-133.022788 297.140776-297.12398 0-164.096992-133.018589-297.11978-297.140776-297.11978z m-1.998827 558.168289c-151.919263 0-275.069693-123.154629-275.069693-275.078092 0-151.927662 123.154629-275.078091 275.069693-275.078091 151.944459 0 275.090689 123.154629 275.090689 275.078091 0 151.927662-123.158828 275.078091-275.090689 275.078092z" fill="#C29379" opacity=".39" p-id="1369"></path><path d="M260.086888 738.285292c0-157.856956 127.966931-285.819688 285.811289-285.819687 116.578655 0 216.771967 69.816178 261.25427 169.870915-34.383187-119.249357-144.259892-206.504882-274.599381-206.504882-157.844358 0-285.811289 127.962732-285.811289 285.811289a284.677501 284.677501 0 0 0 24.578015 115.940375 285.634922 285.634922 0 0 1-11.232904-79.29801z" fill="#FFFFFF" opacity=".71" p-id="1370"></path><path d="M455.312674 117.905608h167.968669v287.012265h-167.968669z" fill="#FFFFFF" p-id="1371"></path><path d="M640.074011 421.71474h-201.562404V101.108741h201.562404v320.605999z m-167.96447-33.593734h134.374935V134.702475h-134.374935v253.418531z" fill="#6E6E96" p-id="1372"></path><path d="M537.193201 1024c-173.091714 0-313.908249-140.824933-313.908249-313.920846s140.820734-313.920846 313.908249-313.920847c173.108511 0 313.937643 140.824933 313.937643 313.920847s-140.829132 313.920846-313.937643 313.920846z m0-594.24376c-154.568969 0-280.314515 125.753944-280.314515 280.327113s125.749745 280.327112 280.314515 280.327112c154.581567 0 280.343909-125.753944 280.343909-280.327112s-125.762342-280.327112-280.343909-280.327113z" fill="#6E6E96" p-id="1373"></path><path d="M151.835279 361.653343c6.009079-17.535929 24.905555-39.08211 42.000566-47.854274l0.071387-0.041992c17.082414-8.79316 17.082414-23.15868 0-31.947641l-0.071387-0.041992c-17.074015-8.797359-36.932111-28.592467-44.12537-44.003593-7.176461-15.411125-18.930069-15.411125-26.102331 0-7.172262 15.415325-27.042956 35.206233-44.108573 44.003593l-0.083984 0.033594c-17.061418 8.780562-17.061418 23.154481 0 31.947641l0.088184 0.041992c17.061418 8.780562 35.970491 30.330943 42.000566 47.854274l4.253806 12.391888c6.013278 17.544328 15.852043 17.544328 21.87372 0l4.203416-12.38349z" fill="#6E6E96" opacity=".22" p-id="1374"></path><path d="M920.480909 528.446232c3.11162-11.169917 12.929388-24.888758 21.806532-30.477915l0.037793-0.025195c8.868746-5.597556 8.868746-14.756048 0-20.349404l-0.037793-0.025196c-8.868746-5.597556-19.190421-18.199405-22.919325-28.021373-3.737303-9.821968-9.838765-9.821968-13.559271 0-3.733104 9.817769-14.050579 22.423817-22.906727 28.021373l-0.050391 0.025196c-8.872945 5.593357-8.872945 14.74345 0 20.349404l0.050391 0.025195c8.856148 5.593357 18.673917 19.316397 21.806533 30.477915l2.212987 7.898727c3.124217 11.161518 8.226266 11.161518 11.358881 0l2.20039-7.898727z" fill="#6E6E96" opacity=".65" p-id="1375"></path><path d="M269.299969 35.445589h541.140465v82.464218H269.299969z" fill="#FFDF7F" p-id="1376"></path><path d="M810.440434 134.706674H269.299969a16.796867 16.796867 0 0 1-16.796867-16.796867V35.445589a16.796867 16.796867 0 0 1 16.796867-16.796867h541.140465a16.796867 16.796867 0 0 1 16.796867 16.796867v82.464218a16.796867 16.796867 0 0 1-16.796867 16.796867z m-524.343598-33.593734h507.546731V52.242456H286.096836v48.870484z" fill="#6E6E96" p-id="1377"></path><path d="M810.440434 116.755022H269.299969a16.796867 16.796867 0 0 1 0-33.593734h541.140465a16.796867 16.796867 0 0 1 0 33.593734z" fill="#6E6E96" opacity=".15" p-id="1378"></path><path d="M684.602506 663.010133h-96.086478l-47.367165-102.843017-44.650272 102.843017H400.424711l79.835509 71.726821-22.99911 97.426028 83.887753-58.188546 90.669488 55.484251-27.059753-104.195166z" fill="#FFD28F" p-id="1379"></path><path d="M423.474212 669.124193l114.071723 42.521268 135.080404-48.635328h-81.280039l-53.892748-102.843017-42.563261 108.957077z" fill="#FFFFFF" opacity=".57" p-id="1380"></path><path d="M684.602506 649.681819h-96.086478c5.20283 0 9.926948 3.036034 12.11474 7.764352l-47.358766-102.843017a13.336712 13.336712 0 0 0-24.347059 0.260351l-44.650272 102.843017a13.332513 13.332513 0 0 1 12.22812-8.024703h-96.07808a13.332513 13.332513 0 1 0-8.910738 23.251063l79.835509 71.726822a13.336712 13.336712 0 0 1-4.060642-12.983979l-23.00331 97.421829a13.328314 13.328314 0 1 0 20.571963 14.021185l83.896152-58.184348a13.332513 13.332513 0 0 1-14.558685 0.419922l90.669488 55.48845a13.340912 13.340912 0 0 0 19.866495-14.726653l-27.055554-104.199364a13.328314 13.328314 0 0 1-4.707322 13.870013l79.843907-62.240791a13.357708 13.357708 0 0 0 4.413377-14.85263 13.361908 13.361908 0 0 0-12.622845-9.011519z m-92.748101 78.932677l27.059753 104.190966a13.353509 13.353509 0 0 1 4.963474-14.067376 13.345111 13.345111 0 0 1 14.90302-0.659277l-90.665288-55.48845a13.34931 13.34931 0 0 0-14.562884 0.419922L449.656329 821.198827a13.336712 13.336712 0 0 1 20.576162 14.016986l23.003309-97.426028a13.324115 13.324115 0 0 0-4.064842-12.979779l-79.839708-71.726821a13.340912 13.340912 0 0 1-8.910738 23.251063h96.069681a13.328314 13.328314 0 0 0 12.228119-8.024703l44.654471-102.843018a13.328314 13.328314 0 0 1-24.342859 0.264551l47.358766 102.838818a13.353509 13.353509 0 0 0 12.11894 7.764352h96.082278a13.332513 13.332513 0 0 1-8.196871-23.855751l-79.843907 62.24919a13.4039 13.4039 0 0 0-4.694725 13.886809z" fill="#6E6E96" p-id="1381"></path><path d="M336.936753 741.254139c0-114.235492 92.601128-206.840819 206.832421-206.84082 114.24809 0 206.857616 92.605327 206.857617 206.84082 0 21.277431-3.229198 41.8158-9.192086 61.140596a224.842862 224.842862 0 0 0 21.789736-96.833939c0-124.670546-101.066749-225.733095-225.754092-225.733095-124.666347 0-225.728896 101.05835-225.728896 225.733095 0 62.937861 25.783191 119.841447 67.33444 160.78381a205.866601 205.866601 0 0 1-42.13914-125.090467z" fill="#D4A18B" opacity=".61" p-id="1382"></path><path d="M577.08576 131.968785h31.494126v220.274113h-31.494126z" fill="#6E6E96" opacity=".15" p-id="1383"></path><path d="M749.98431 309.373095V129.869176h-25.925964v182.665929c0 23.876746-31.279966 39.707794-49.659937 39.707793H387.033409c-48.631129 0-88.418708-39.783379-88.418708-88.418707v57.046359c0 48.635328 39.787579 88.418708 88.418708 88.418708h287.365c48.62693 0 88.427106-39.783379 88.427106-88.418708V263.832589c-0.004199 16.649894-4.753513 32.207992-12.841205 45.540506z" fill="#6E6E96" opacity=".15" p-id="1384"></path><path d="M404.922073 131.968785h31.494125v220.274113h-31.494125z" fill="#6E6E96" opacity=".15" p-id="1385"></path></svg>