<?xml version="1.0" standalone="no"?><!DOCTYPE svg PUBLIC "-//W3C//DTD SVG 1.1//EN" "http://www.w3.org/Graphics/SVG/1.1/DTD/svg11.dtd"><svg t="1728486294073" class="icon" viewBox="0 0 1024 1024" version="1.1" xmlns="http://www.w3.org/2000/svg" p-id="2430" xmlns:xlink="http://www.w3.org/1999/xlink" width="200" height="200"><path d="M411.251035 679.939932C-80.506707 481.624118 6.310086 207.462315 110.749306 186.25376 196.674774 168.793772 216.842061 245.11458 216.842061 245.11458s9.725447 47.173623-24.457312 47.173624c-34.186924 0-24.682226-63.621499-66.457914-63.621499-51.267891 0-125.493667 218.633042 234.318709 391.287837l51.005491 59.98539z" fill="#EDB0B0" p-id="2431"></path><path d="M39.326625 372.974009s70.293947 163.220903 331.789761 265.640063l30.975652 37.581459S122.340706 572.243624 39.326625 372.974009z" fill="#D9A1A1" p-id="2432"></path><path d="M155.273943 475.818006C38.74768 345.517844 88.466163 228.67087 125.93933 228.67087c41.775688 0 32.275155 63.625664 66.457914 63.625664 34.178594 0 24.461477-47.173623 24.461477-47.173624s-1.882613-7.088955-6.918187-16.447875c0 0 7.134771 22.595524-22.591359 22.595524-29.7178 0-31.675385-78.12845-98.937158-24.719712-72.114084 57.261432 17.080967 218.595557 66.861926 249.267159z" fill="#D9A1A1" p-id="2433"></path><path d="M604.539605 679.939932c42.387954-17.093462 80.473387-34.778364 114.631155-52.771482 362.019865-190.947798 281.296574-421.538767 185.874739-440.92302-85.921303-17.455823-106.105249 58.864985-106.10525 58.864985s-9.712952 47.173623 24.453147 47.173623c34.174429 0 24.690556-63.621499 66.457914-63.621498 51.272056 0 125.485337 218.633042-234.310379 391.287837l-51.001326 59.989555z" fill="#EDB0B0" p-id="2434"></path><path d="M975.222823 377.222384s-70.289782 163.212573-331.789761 265.644228l-30.967322 37.581459c0.00833-0.004165 279.743002-103.964402 362.757083-303.225687z" fill="#D9A1A1" p-id="2435"></path><path d="M859.27967 480.062216c116.534594-130.300162 66.80778-247.142971 29.322118-247.142971-41.767358 0-32.266825 63.617334-66.457914 63.617334-34.161934 0-24.444817-47.173623-24.444817-47.173624s1.890943-7.09312 6.909857-16.43538c0 0-7.126441 22.583029 22.591359 22.583029 29.730295 0 31.67122-78.12845 98.949653-24.711382 72.105754 57.253101-17.093462 218.587227-66.870256 249.262994z" fill="#D9A1A1" p-id="2436"></path><path d="M405.020085 695.392355c-143.503445-57.873697-250.046027-126.709868-316.670544-204.59258C19.388418 410.180611 9.808748 339.882499 13.919676 295.107958c5.843598-63.708965 44.299723-115.18511 93.514232-125.181286 9.563009-1.945089 18.901104-2.932212 27.74772-2.932212 61.905489 0 91.023518 48.314854 97.766772 73.863415l0.208254 0.891326c0.703897 3.42369 6.447534 34.003661-9.07153 53.050542-5.260488 6.455864-15.027585 14.148755-31.700375 14.148755-27.064648 0-37.164952-22.724641-44.541297-39.31413-8.371798-18.830298-12.261977-24.307369-21.916617-24.307369-4.385822 0-17.414173 11.037445-23.628463 38.351997-29.372099 129.113116 124.481554 253.748778 265.156914 321.252126l3.190447 1.532747 53.300446 62.684357-18.926094 26.244129zM135.181628 200.315049c-6.618302 0-13.723917 0.762208-21.112758 2.261635-29.472061 5.985211-61.934644 40.73442-66.966053 95.571778-4.215054 45.936597 7.238898 199.073857 305.070815 338.029042l-2.336607-2.744784c-113.735664-55.045612-195.067056-119.541777-241.761696-191.726667-48.856313-75.525279-44.945309-136.056294-38.264531-165.415897 8.746655-38.447794 31.300528-64.283746 56.116037-64.283746 32.758304 0 44.557957 26.535684 52.363305 44.091469 6.980663 15.698162 9.746272 19.53003 14.094609 19.53003 4.340007 0 5.414596-1.316163 5.872753-1.878448 4.052617-4.973098 3.552808-18.442946 2.369927-24.753032-1.441115-4.831485-15.881426-48.68138-65.445801-48.68138zM610.770555 695.392355l-18.926094-26.244129 53.300446-62.688522 3.194612-1.532747c140.671195-67.503348 294.520683-192.143174 265.144419-321.256291-6.21429-27.318718-19.24264-38.351998-23.628463-38.351997-9.64631 0-13.540654 5.477072-21.920782 24.311534-7.376345 16.589488-17.480814 39.309964-44.537132 39.309965-16.664459 0-26.431557-7.692891-31.68788-14.14459-15.523229-19.046881-9.787923-49.626852-9.084025-53.050542l0.212419-0.899656c6.751584-25.544396 35.882109-73.85925 97.787597-73.85925 8.842451 0 18.176381 0.982957 27.743555 2.928047 46.690475 9.483873 83.826271 56.032735 92.406323 115.826531 5.481237 38.218715 1.790982 98.845526-46.94038 170.597249-46.261472 68.123943-122.603106 130.558396-226.888218 185.562358-35.673855 18.796977-74.758906 36.790095-116.176397 53.49204z m55.18306-61.9638l-2.27413 2.673977a1122.77472 1122.77472 0 0 0 47.727578-23.674278c99.399481-52.429946 171.692663-111.240785 214.859485-174.808138 42.733655-62.930097 46.165676-114.756107 41.521619-147.147885-7.559609-52.709006-39.543209-82.514273-66.053902-87.899712-7.388841-1.499426-14.490291-2.261635-21.108593-2.261635-49.922572 0-63.938045 43.362581-65.445801 48.606408-1.416125 7.62625-1.38697 20.271413 2.369927 24.848829 0.458158 0.553955 1.528582 1.857623 5.847763 1.857623 4.344172 0 7.109781-3.831868 14.094609-19.53003 7.809513-17.555785 19.609166-44.091469 52.363305-44.091469 24.819673 0 47.369382 25.831786 56.120202 64.279581 6.680778 29.359604 10.591782 89.894783-38.264531 165.420062-46.69464 72.18489-128.021867 136.681055-241.757531 191.726667z" fill="#6E6E96" p-id="2437"></path><path d="M411.105258 904.883061c6.955673-10.216925 22.770457-18.563733 35.12823-18.563733h124.385758c12.378599 0 28.168393 8.346807 35.132395 18.563733l8.563391 12.541036c6.972333 10.225256 12.665989 26.573169 12.665989 36.336102 0 9.775428-10.129459 17.755709-22.478902 17.755709H412.350615c-12.349443 0-22.466407-7.996941-22.466407-17.755709 0-9.762932 5.693656-26.110846 12.649328-36.336102l8.571722-12.541036z" fill="#CCCCDE" p-id="2438"></path><path d="M604.497954 988.172037H412.350615c-21.575081 0-39.126701-15.439928-39.126702-34.416003 0-13.03668 6.680778-32.687497 15.53156-45.707517l8.592547-12.574358c10.012837-14.706875 31.038128-25.819291 48.881303-25.819291h124.385757c17.834845 0 38.855971 11.108251 48.897964 25.840117l8.555061 12.528541c8.875772 13.024185 15.56488 32.679167 15.56488 45.728343 0.00833 18.98024-17.55162 34.420168-39.135031 34.420168z m-197.932627-35.153221c0.720558 0.678907 2.707298 1.832632 5.785288 1.832632h192.147339c3.08632 0 5.077225-1.14956 5.801948-1.832632-0.324876-6.139318-4.469124-18.463771-9.750438-26.210808l-8.559226-12.528541c-3.890179-5.710316-14.473631-11.299845-21.370992-11.299845h-124.385758c-6.901527 0-17.480814 5.585364-21.354332 11.279019l-8.588382 12.570192c-5.260488 7.722046-9.400571 20.050664-9.725447 26.189983z" fill="#6E6E96" p-id="2439"></path><path d="M342.906343 1004.898973v-25.569387c0-14.073784 17.018491-25.581882 37.814703-25.581882h255.223214c20.800377 0 37.798043 11.508098 37.798042 25.581882v25.569387" fill="#CCCCDE" p-id="2440"></path><path d="M823.218463 105.892831c0 16.464536-15.27749 29.926054-33.928689 29.926053H219.182832c-18.672025 0-33.932854-13.461518-33.932854-29.926053 0-16.456206 15.264995-29.926054 33.932854-29.926054h570.094446c18.663695 0.004165 33.941185 13.469848 33.941185 29.926054z" fill="#EDB0B0" p-id="2441"></path><path d="M579.66995 886.315163c0-46.469726-40.417874-45.141067-40.417874-97.741782 0-70.002392 34.191089-84.834219 34.191089-84.834219 274.55332-194.038283 216.433884-567.924443 216.433884-567.924443H215.630024s-37.248253 359.75823 224.043473 567.924443c0 0 49.576871 29.69281 34.178594 84.834219-14.148755 50.663955-40.417874 51.267891-40.417874 97.741782h146.235733z" fill="#F7B8B8" p-id="2442"></path><path d="M215.630024 135.818884h430.672774v31.338014H215.630024z" fill="#D9A1A1" p-id="2443"></path><path d="M573.605603 703.814134c274.382552-194.288187 215.93824-568.116036 215.93824-568.116037l-145.46936 0.120787s35.332319 381.25834-80.490047 497.313951c0 0-60.081186 47.985813-52.754822 141.24181 0 0 3.161291 31.15475 26.090021 76.520732 10.379363 20.529648 7.118111 35.511417 7.118111 35.511417l35.977906-0.037485c-0.054146-46.473891-40.467855-45.095252-40.517836-97.704296-0.045816-69.977401 34.107788-84.850879 34.107787-84.850879z" fill="#D9A1A1" p-id="2444"></path><path d="M733.144582 135.818884s77.091347 331.12335-159.705582 567.924443c0 0 280.459395-189.944016 215.829948-567.924443h-56.124366z" fill="#CC9797" p-id="2445"></path><path d="M434.104794 591.336322c-72.47228-129.92114-59.381454-422.055236-59.381454-422.055236h-90.798604c2.453228 79.023941 17.980623 281.425692 109.895466 424.158598 39.264149 61.001668 71.33105 108.296078 82.160242 145.569321 9.07153 17.00183 15.464918 26.660636 8.480089 51.684398-14.148755 50.663955-48.893799 51.255395-48.893798 97.729287h38.843476c0-42.233846 25.4486-61.688905 25.4486-131.670471-0.012495-47.356887-65.754017-165.415897-65.754017-165.415897z" fill="#FFFFFF" opacity=".5" p-id="2446"></path><path d="M676.99106 106.126075c0 16.464536-15.26916 29.938549-33.924525 29.938549H268.805519c-18.672025 0-33.928689-13.461518-33.92869-29.938549 0-16.464536 15.26916-29.926054 33.92869-29.926054h374.273512c18.642869 0.004165 33.912029 13.465683 33.912029 29.926054z" fill="#FCBBBB" p-id="2447"></path><path d="M474.401881 896.91111v56.836594h-49.489404s-0.733053-45.445118 10.645928-56.836594h38.843476z" fill="#FFFFFF" opacity=".56" p-id="2448"></path><path d="M544.050241 886.315163v67.428376h82.918285c0.004165 0.00833-7.613755-67.428376-82.918285-67.428376z" fill="#6E6E96" opacity=".15" p-id="2449"></path><path d="M385.265141 958.300129h89.132575v46.598844h-89.132575z" fill="#FFFFFF" opacity=".66" p-id="2450"></path><path d="M679.415133 983.690418l-12.711805 21.208555h-98.987139v-51.147104h72.109919l17.55995 9.31727z" fill="#6E6E96" opacity=".15" p-id="2451"></path><path d="M690.415092 1021.559267H326.254379v-42.229681c0-23.686773 23.928348-42.242176 54.474997-42.242176h255.223214c30.538319 0 54.462502 18.555403 54.462502 42.242176v42.229681z m-330.840125-33.320589h297.519536v-8.909092c0-2.219984-7.501298-8.921588-21.141913-8.921588H380.729376c-13.653111 0-21.154409 6.697438-21.154409 8.921588v8.909092zM596.330245 902.975457h-179.556322v-16.660294c0-30.929836 10.470995-46.094869 20.600454-60.768424 7.309704-10.587617 14.869313-21.537595 20.433851-41.454977 11.841304-42.408779-26.306605-65.828988-26.693957-66.058067l-1.824302-1.262018C290.38893 606.109838 235.185045 453.518202 213.335069 345.001375c-23.578482-117.096879-14.669389-207.129109-14.277872-210.906831l1.545242-14.944284h603.539987l2.190829 14.102939c0.608101 3.923499 14.715205 97.504373-5.293809 216.517185-26.639811 158.510205-102.023477 285.615756-217.987456 367.571909l-1.845127 1.303668-0.949637 0.308215c-2.861406 1.645204-24.353185 15.793959-24.353185 69.61504 0 21.046117 7.609589 30.105152 17.243404 41.567434 10.325217 12.291132 23.174469 27.585282 23.17447 56.170183v16.668624z m-144.548879-33.320589h108.287748c-2.669812-6.472524-7.009819-11.633051-12.420249-18.076419-11.162397-13.286585-25.052918-29.821927-25.052918-63.005068 0-71.726732 33.004043-94.255615 42.254672-99.162072 232.398611-165.149333 217.033654-468.170931 210.227924-536.94046H231.203234c-1.449446 29.913558-2.303286 101.63196 15.002595 186.974318 20.796212 102.552442 72.897118 246.522375 203.051503 350.624224 21.033622 13.128312 55.283022 50.543168 40.638623 102.985609-7.063965 25.294492-17.068472 39.784783-25.102899 51.426164-6.189299 8.967403-10.725064 15.531559-13.01169 25.173704z" fill="#6E6E96" p-id="2452"></path><path d="M281.404866 80.206822h89.074264v46.657154H281.404866z" fill="#FFFFFF" opacity=".62" p-id="2453"></path><path d="M412.904569 75.970942h42.412945v50.897199H412.904569z" fill="#FFFFFF" opacity=".34" p-id="2454"></path><path d="M447.537156 167.161063s-11.370651 263.286796 16.972675 372.569997c30.27592 116.759508 34.095292 204.080275 34.095292 204.080275s-35.927925-147.010437-59.539726-218.22903c-35.282338-106.388474-25.444435-358.425407-25.444435-358.425407h33.916194v0.004165z" fill="#D9A1A1" opacity=".44" p-id="2455"></path><path d="M707.691817 1021.559267H317.336956a16.660294 16.660294 0 0 1 0-33.320589h390.359026a16.660294 16.660294 0 1 1-0.004165 33.320589z" fill="#6E6E96" p-id="2456"></path><path d="M603.069334 167.161063s51.092958 319.032141-49.397773 475.872152c0 0 127.37628-116.059775 92.618741-475.888812l-43.220968 0.01666zM601.649044 78.090965h42.425439v57.727919h-42.425439z" fill="#F7C6C6" p-id="2457"></path><path d="M306.116248 169.285251s5.522888 290.863748 79.682023 411.23854c0 0-88.832689-126.805665-101.890195-411.23854h22.208172zM281.404866 80.206822h18.413791v46.657154h-18.413791z" fill="#FFFFFF" p-id="2458"></path><path d="M789.285609 152.479179H219.182832c-27.897663 0-50.593149-20.900339-50.593149-46.586348S191.285169 59.310648 219.182832 59.310648h570.094446c27.901828 0.004165 50.597314 20.904504 50.597314 46.586348 0.004165 25.681844-22.691321 46.582183-50.588983 46.582183zM219.182832 92.631236c-9.363085 0-17.27256 6.072677-17.27256 13.26576s7.909475 13.265759 17.27256 13.265759h570.102777c9.363085 0 17.268395-6.072677 17.268395-13.265759 0-7.188917-7.91364-13.261594-17.280891-13.26576H219.182832z" fill="#6E6E96" p-id="2459"></path><path d="M70.052373 42.583712L143.432639 95.588439l-29.263807 40.517835L40.788566 83.105713z" fill="#FFBF00" p-id="2460"></path><path d="M595.867922 250.4667l25.273666 43.116841-69.677516 40.846877-25.273666-43.121007z" fill="#B3F1FF" p-id="2461"></path><path d="M263.440904 692.135267l42.167205 26.827239-57.061508 89.68653-42.16304-26.823074z" fill="#FFDE7A" p-id="2462"></path><path d="M955.313772 585.176178l53.000561 65.229217-38.78933 31.517112-53.000562-65.229217z" fill="#FFFF00" p-id="2463"></path><path d="M635.640209 513.965915l85.608923 85.604757-35.344815 35.340649-85.604757-85.604757z" fill="#FFA385" p-id="2464"></path><path d="M918.269607 46.157345l35.336484 35.336485-42.800296 42.800296-35.340649-35.336484z" fill="#FF9FA6" p-id="2465"></path></svg>