<?xml version="1.0" standalone="no"?><!DOCTYPE svg PUBLIC "-//W3C//DTD SVG 1.1//EN" "http://www.w3.org/Graphics/SVG/1.1/DTD/svg11.dtd"><svg t="1727601612133" class="icon" viewBox="0 0 1024 1024" version="1.1" xmlns="http://www.w3.org/2000/svg" p-id="19136" xmlns:xlink="http://www.w3.org/1999/xlink" width="200" height="200"><path d="M667.9 843.8H327.8c-12.5 0-22.7 10.2-22.7 22.7s10.2 22.7 22.7 22.7h340.1c12.5 0 22.7-10.2 22.7-22.7s-10.2-22.7-22.7-22.7zM367.2 788.7c12.5 0 22.7-10.2 22.7-22.7V489.9c0-12.5-10.2-22.7-22.7-22.7s-22.7 10.2-22.7 22.7V766c0 12.5 10.2 22.7 22.7 22.7zM499.9 788.7c12.5 0 22.7-10.2 22.7-22.7V489.9c0-12.5-10.2-22.7-22.7-22.7s-22.7 10.2-22.7 22.7V766c0 12.5 10.2 22.7 22.7 22.7zM636.4 788.7c12.5 0 22.7-10.2 22.7-22.7V489.9c0-12.5-10.2-22.7-22.7-22.7s-22.7 10.2-22.7 22.7V766c-0.1 12.5 10.2 22.7 22.7 22.7z" fill="#595757" p-id="19137"></path><path d="M856.2 402h-88.4v-20.2c0-4.6 2.2-9 6.1-11.5 28.9-18.6 47.8-49 47.8-83.4 0-44.9-31.6-83.4-77.4-97.2-3.4-1-6.1-3.3-7.9-6.3-14.1-23.4-41.3-38.5-71.9-38.5h-1.2c-5.1 0.1-9.9-2.4-12.4-6.8-24.8-44.8-76.1-74.2-134-74.2-50 0-95.1 21.7-122.5 56.7-3.8 4.9-10.4 6.5-16.2 4.2-10.5-4.2-22.1-6.5-33.9-6.5-23.5 0-45.4 8.9-61 23.9-2.8 2.7-6.8 4-10.7 3.5-4.2-0.6-8.5-0.9-12.8-0.9-48 0-87 35.4-87 79V371c0 30.3 18.9 56.6 46.5 69.9 4.8 2.3 7.8 7.1 7.8 12.4v447.5c0 32.8 26.6 59.4 59.4 59.4h422c32.8 0 59.4-26.6 59.4-59.4v-87.3h88.4c25.1 0 45.5-20.4 45.5-45.5V447.5c-0.1-25.1-20.5-45.5-45.6-45.5zM708.4 914.7h-422c-7.7 0-13.9-6.2-13.9-13.9V460.7c0-6.4 4.4-11.9 10.7-13.5 21.8-5.6 40.2-18.7 51.5-36 3.5-5.4 10-7.9 16.2-6 8 2.3 16.4 3.6 24.9 3.6 16.8 0 32.9-4.7 46.5-13.2 4.2-2.6 9.4-2.7 13.7-0.4 10.6 5.6 22.9 8.8 35.6 8.8 25.9 0 48.5-12.7 61-31.7 3.8-5.7 11.1-7.7 17.4-5 15.2 6.6 32 10.2 49.4 10.2 12.2 0 24.3-1.8 35.8-5.2 3.9-1.2 8-0.7 11.5 1.3 18.2 10.4 39.3 16 61.1 16h0.5c7.9 0 14.3 6.4 14.3 14.3v496.9c-0.3 7.7-6.5 13.9-14.2 13.9z m59.1-600.2c-9.4 14.2-33 29.6-60 29.6s-39.8-25.1-58-25.1c-18.2 0-26.1 12.5-50.3 12.9-14.5 0-38.5-24.1-71.9-15.8-11.7 2.9-21.1 9.3-27.4 22-6.3 12.7-14.6 20.2-28.5 20.2-9.9 0-19.3-20.9-43.6-20.2-24.3 0.6-38.2 25.1-52.1 25.1-13.4 0-25.9-6.2-33.4-16.5l-15.9-21.9c-2.6-3.6-6.8-5.8-11.3-5.8-7.7 0-13.9 6.2-13.9 13.9V371c0 14.6-12.2 27.3-28.7 31.8-4.1 1.1-8.4 1.7-12.8 1.7-13.1 0-25-5.2-32.7-13.2-5.5-5.7-8.8-12.8-8.8-20.3V223.8c0-18.2 19-33.5 41.5-33.5 6.7 0 13.2 1.3 19.2 4l7.7 3.3c6.8 3 14.8 0 18.1-6.6l3.7-7.5c5.8-11.8 20.2-19.7 35.9-19.7 13.5 0 25.9 5.7 33 15.1l9.9 13.2c6.7 8.9 20.6 6.8 24.3-3.8l5.4-15.5c13.1-37.3 54.2-63.4 100-63.4 48.8 0 90.5 28.2 101.5 68.7l2.6 9.4c2.2 8 10.8 12.3 18.5 9.3l9.1-3.5c5-1.9 10.3-2.9 15.8-2.9 17.3 0 32.4 9.9 35.9 23.4l1.5 5.7c1.4 5.4 6 9.5 11.5 10.3l5.8 0.8c33.1 4.7 57 28.4 57 56.3 0 10-3.1 19.4-8.6 27.6z m0.3 453.5V447.5h88.4V768h-88.4z" fill="#595757" p-id="19138"></path></svg>