<?xml version="1.0" standalone="no"?><!DOCTYPE svg PUBLIC "-//W3C//DTD SVG 1.1//EN" "http://www.w3.org/Graphics/SVG/1.1/DTD/svg11.dtd"><svg t="1727601589527" class="icon" viewBox="0 0 1024 1024" version="1.1" xmlns="http://www.w3.org/2000/svg" p-id="16393" xmlns:xlink="http://www.w3.org/1999/xlink" width="200" height="200"><path d="M432.53 614.56v241.62H272.09v40H633v-40H472.53V615.09l161.26-176a168.46 168.46 0 0 0 85.06 22.83c93.66 0 169.86-76.19 169.86-169.85s-76.2-169.86-169.86-169.86c-83.26 0-153.41 60.43-167.32 140.68H109.79zM310 421.89l-109.23-119h503.55l-109.05 119z m248.61 40L452.76 577.45l-106-115.56z m160.24-299.71A130 130 0 0 1 848.71 292c0 71.6-58.25 129.85-129.86 129.85a128.88 128.88 0 0 1-57.18-13.26l133.54-145.73H592.32a130 130 0 0 1 126.53-100.68z" p-id="16394"></path></svg>