<?xml version="1.0" standalone="no"?><!DOCTYPE svg PUBLIC "-//W3C//DTD SVG 1.1//EN" "http://www.w3.org/Graphics/SVG/1.1/DTD/svg11.dtd"><svg t="1727601687837" class="icon" viewBox="0 0 1024 1024" version="1.1" xmlns="http://www.w3.org/2000/svg" p-id="23962" xmlns:xlink="http://www.w3.org/1999/xlink" width="200" height="200"><path d="M457.250133 72.635733c62.532267-0.4096 117.5552 3.959467 171.2128 20.0704 11.605333 3.549867 22.9376 7.645867 33.314134 14.062934 24.439467 15.018667 34.133333 34.269867 16.7936 63.351466-27.306667 45.8752-49.015467 65.672533-72.9088 113.4592-14.336 28.672-8.055467 55.432533 7.918933 81.5104 25.668267 41.7792 52.4288 75.639467 70.997333 121.378134 17.749333 43.8272 30.173867 89.019733 35.2256 136.123733 1.092267 9.8304 2.8672 15.291733 14.062934 15.1552 6.144-0.136533 12.424533 2.321067 18.705066 3.6864 53.6576 11.8784 63.624533 24.1664 63.624534 78.506667 0 42.734933 0.546133 85.469867-0.136534 128.2048-0.955733 55.842133-19.524267 68.266667-67.447466 101.034666-19.114667 13.1072-40.686933 17.6128-63.488 17.2032-40.004267-0.8192-80.6912-4.5056-120.0128-2.594133-50.926933 2.4576-101.717333 2.321067-152.507734 3.413333-14.472533 0.273067-29.4912-0.546133-43.554133-3.822933-56.251733-13.1072-94.208-49.288533-117.009067-100.625067C177.493333 694.818133 187.323733 566.613333 280.9856 408.234667c10.376533-17.6128 21.162667-27.4432 32.3584-44.509867 17.6128-26.897067 19.387733-55.432533 5.461333-83.5584-24.302933-49.015467-47.377067-69.358933-74.820266-116.872533-10.6496-18.295467-7.236267-35.089067 9.557333-48.878934 20.8896-17.2032 46.557867-23.620267 71.953067-29.0816 45.602133-9.966933 91.886933-14.062933 131.754666-12.6976z m67.584 861.934934c-29.4912-33.041067-44.373333-33.041067-46.557866-74.1376-2.594133-49.015467-0.8192-98.167467-1.365334-147.182934-0.546133-45.329067 6.007467-53.930667 49.152-68.4032 4.778667-1.6384 9.8304-2.8672 14.7456-3.822933 42.5984-8.465067 85.6064-12.970667 129.024-10.376533 14.609067 0.8192 18.0224-4.5056 15.291734-17.476267-3.003733-14.336-5.7344-28.672-8.192-43.144533-1.501867-8.328533-4.642133-12.6976-14.199467-14.472534-63.8976-11.0592-127.931733-14.609067-191.556267 0.546134-58.9824 14.062933-118.3744 24.849067-179.4048 22.528-50.244267-1.911467-50.107733-1.774933-53.6576 50.517333-5.7344 87.2448 5.3248 136.3968 42.1888 216.405333 22.801067 49.152 57.7536 84.923733 114.824534 88.337067 42.1888 2.730667 84.3776 0.682667 129.706666 0.682667zM297.7792 195.3792c14.609067 29.218133 26.487467 26.760533 41.096533 52.0192 29.354667 50.653867 26.897067 98.304-6.280533 146.6368-30.037333 43.554133-54.8864 82.875733-71.816533 133.5296-4.232533 12.834133-2.321067 17.066667 10.922666 17.476267 47.786667 1.365333 95.573333 2.048 142.5408-9.4208 49.5616-12.014933 99.259733-22.391467 150.869334-21.845334 31.675733 0.4096 63.351467 2.048 95.982933 8.328534-1.911467-6.280533-3.003733-10.6496-4.5056-14.7456-16.247467-46.6944-41.7792-81.237333-68.8128-122.197334-16.7936-25.3952-24.712533-52.565333-20.8896-83.285333 2.184533-16.930133 9.4208-31.5392 16.657067-46.421333 14.199467-29.218133 28.672-28.808533 44.2368-60.2112-111.547733 26.487467-219.272533 26.2144-330.001067 0.136533z m484.829867 609.0752c0-21.026133-0.4096-42.052267 0.136533-63.0784 0.4096-12.424533-1.2288-15.9744-15.701333-12.288-80.964267 21.026133-162.338133 20.8896-243.3024-0.546133-11.0592-3.003733-14.609067-2.184533-14.336 9.966933 0.682667 26.760533-0.136533 53.521067 0.273066 80.2816 0.4096 22.254933-2.184533 9.284267 3.959467 31.266133 13.5168 48.059733 45.602133 89.2928 108.407467 84.7872 20.8896-1.501867 42.052267 0.273067 63.0784-0.4096 35.2256-1.092267 60.893867-17.6128 79.189333-48.196266 22.254933-36.727467 18.0224-41.7792 18.295467-81.783467z m-319.488-620.9536c51.063467-0.273067 101.5808-6.007467 151.005866-18.978133 15.018667-3.959467 38.0928-6.826667 38.5024-21.7088 0.4096-12.970667-22.801067-16.520533-37.410133-20.616534-35.089067-9.8304-70.997333-14.472533-107.178667-16.7936-68.4032-4.232533-136.123733-0.546133-202.3424 18.8416-12.288 3.549867-32.494933 4.9152-32.3584 18.705067 0.136533 14.609067 20.206933 16.7936 33.041067 20.48 51.2 14.062933 103.6288 19.6608 156.740267 20.0704zM509.405867 690.858667c92.842667 27.170133 181.316267 28.398933 272.930133-0.136534-43.4176-35.089067-225.826133-35.362133-272.930133 0.136534z" p-id="23963"></path><path d="M406.596267 977.988267c-15.1552 0-28.2624-1.365333-40.1408-4.096-56.9344-13.243733-98.850133-49.152-124.5184-106.9056-38.638933-87.108267-54.340267-162.2016-49.5616-236.066134 4.778667-72.9088 29.9008-145.544533 78.916266-228.420266 6.144-10.24 12.288-18.158933 18.432-25.668267 4.9152-6.144 9.557333-12.014933 14.336-19.2512 15.428267-23.483733 17.066667-48.059733 4.778667-72.772267-13.243733-26.760533-26.2144-44.782933-39.867733-63.8976-10.922667-15.291733-22.254933-31.1296-34.542934-52.292266-13.1072-22.801067-8.738133-45.738667 12.014934-62.805334 22.664533-18.568533 49.152-25.3952 76.5952-31.402666 44.509867-9.557333 92.296533-14.062933 134.3488-12.834134 71.406933-0.546133 125.201067 5.870933 174.216533 20.48 15.018667 4.5056 26.077867 9.147733 35.908267 15.291734 32.494933 20.0704 39.458133 46.2848 20.48 78.2336-11.741867 19.797333-22.391467 34.679467-32.768 49.015466-13.653333 18.978133-26.487467 36.864-39.867734 63.761067-11.195733 22.391467-8.874667 44.2368 7.509334 70.8608 7.236267 11.741867 14.7456 23.074133 21.845333 34.133333 18.705067 28.398933 36.317867 55.159467 49.9712 88.8832 19.387733 47.9232 31.1296 93.3888 35.908267 138.990934 0.273067 3.003733 0.682667 4.5056 0.8192 5.188266 0.4096 0 1.092267 0.136533 2.184533 0.136534 6.007467-0.136533 11.4688 1.365333 16.247467 2.730666 1.774933 0.4096 3.413333 0.955733 4.9152 1.2288 58.709333 12.970667 72.226133 29.627733 72.226133 89.156267 0 13.1072 0 26.2144 0.136533 39.185067 0.136533 29.218133 0.273067 59.392-0.273066 89.156266-0.955733 61.303467-23.210667 76.458667-71.68 109.499734l-0.546134 0.4096c-19.6608 13.380267-42.461867 19.6608-69.905066 18.978133-13.5168-0.273067-27.306667-0.955733-40.5504-1.501867-26.077867-1.092267-52.974933-2.321067-78.6432-1.092266-33.860267 1.6384-67.9936 2.184533-101.1712 2.594133-16.930133 0.273067-34.542933 0.4096-51.746134 0.8192-1.911467 0.273067-3.959467 0.273067-6.007466 0.273067zM442.504533 83.285333c-36.727467 0-76.868267 4.369067-114.824533 12.561067-24.712533 5.3248-48.469333 11.332267-67.310933 26.897067-12.834133 10.513067-14.882133 21.2992-6.9632 34.952533 11.741867 20.343467 22.801067 35.6352 33.450666 50.517333 14.199467 19.797333 27.716267 38.638933 41.642667 66.901334 15.701333 31.675733 13.653333 64.3072-6.007467 94.344533-5.3248 8.055467-10.513067 14.609067-15.428266 20.8896-5.870933 7.3728-11.332267 14.199467-16.657067 23.210667C197.700267 570.436267 189.781333 694.954667 262.144 857.975467c22.664533 51.063467 59.528533 82.875733 109.499733 94.481066 11.605333 2.730667 24.9856 3.822933 40.823467 3.413334 17.339733-0.4096 34.952533-0.682667 51.882667-0.8192 32.904533-0.4096 66.901333-0.955733 100.352-2.594134 26.624-1.365333 54.203733-0.136533 80.6912 1.092267 13.243733 0.546133 26.760533 1.2288 40.1408 1.501867 22.664533 0.4096 41.3696-4.5056 57.070933-15.291734l0.546133-0.4096c47.104-32.085333 61.303467-41.7792 62.122667-91.886933 0.546133-29.4912 0.4096-59.528533 0.273067-88.610133 0-13.1072-0.136533-26.2144-0.136534-39.3216 0-9.557333-0.273067-17.6128-1.092266-24.439467l-18.705067 5.870933c-91.3408 28.535467-182.6816 28.535467-279.3472 0.136534l-18.295467-5.3248c-0.273067 4.9152-0.273067 10.513067-0.136533 17.2032 0.136533 17.339733 0.136533 34.952533 0 51.882666-0.136533 31.1296-0.4096 63.351467 1.365333 94.890667 1.365333 25.8048 7.236267 31.402667 22.801067 46.011733 5.7344 5.461333 12.970667 12.288 21.026133 21.2992l16.247467 18.158934h-24.439467c-14.062933 0-28.125867 0.136533-41.642666 0.4096-30.446933 0.4096-59.255467 0.8192-88.4736-0.955734-29.354667-1.774933-55.022933-11.741867-76.5952-29.4912-18.978133-15.701333-34.542933-37.000533-47.5136-65.1264-38.912-83.968-49.015467-135.714133-43.281067-221.730133v-0.273067c1.911467-28.808533 2.8672-43.281067 12.6976-52.565333 10.103467-9.4208 24.9856-8.874667 52.155733-7.918933 63.488 2.4576 124.791467-9.8304 176.401067-22.1184 57.480533-13.789867 119.739733-13.9264 195.925333-0.682667 17.6128 3.003733 21.572267 14.7456 23.074134 23.3472 2.8672 16.7936 5.461333 30.3104 8.192 42.734933 1.365333 6.5536 2.594133 16.247467-3.6864 23.483734-6.280533 7.236267-16.110933 7.645867-22.9376 7.236266-38.912-2.321067-80.2816 1.092267-126.293334 10.24-5.051733 0.955733-9.557333 2.184533-13.5168 3.549867-31.402667 10.513067-39.594667 15.291733-41.3696 37.6832l14.609067-10.922667c28.125867-21.162667 92.9792-28.808533 144.315733-28.808533h0.136534c51.473067 0 115.643733 7.645867 141.994666 28.945067l14.882134 12.151466c-3.413333-26.897067-15.5648-33.860267-53.930667-42.461866-2.048-0.4096-3.959467-0.955733-5.870933-1.501867-3.822933-0.955733-7.509333-2.048-10.376534-1.911467h-0.546133c-21.845333 0-23.620267-17.476267-24.439467-24.849066-4.642133-43.690667-15.837867-87.2448-34.4064-133.12-12.834133-31.675733-29.9008-57.617067-47.9232-85.060267-7.236267-11.0592-14.882133-22.528-22.254933-34.679467-20.206933-32.904533-22.9376-63.0784-8.465067-92.023466 14.199467-28.398933 27.4432-46.967467 41.642667-66.7648 10.103467-14.062933 20.48-28.535467 31.675733-47.5136 12.561067-21.2992 8.874667-34.816-13.1072-48.469334-8.055467-5.051733-17.6128-9.0112-30.72-12.970666-46.6944-14.062933-98.440533-20.0704-167.799466-19.524267h-0.546134c-4.642133-0.136533-9.4208-0.273067-14.336-0.273067zM271.701333 589.141333c-8.465067 0-14.472533 0.546133-16.520533 2.4576-3.549867 3.413333-4.642133 18.705067-5.870933 38.0928v0.273067c-5.461333 82.602667 3.822933 129.979733 41.233066 211.080533 24.1664 52.4288 58.709333 79.189333 105.6768 82.056534 28.398933 1.774933 56.661333 1.365333 86.698667 0.8192 5.3248-0.136533 10.6496-0.136533 16.110933-0.273067L496.981333 921.6c-16.657067-15.837867-27.716267-26.2144-29.4912-60.757333-1.774933-32.221867-1.501867-64.7168-1.365333-96.119467 0.136533-16.930133 0.136533-34.4064 0-51.473067-0.273067-23.7568 1.365333-39.867733 10.24-52.292266 8.874667-12.288 23.210667-18.8416 46.421333-26.624 4.778667-1.6384 10.103467-3.003733 16.110934-4.232534 47.9232-9.557333 91.067733-13.1072 131.8912-10.6496 2.184533 0.136533 3.549867 0 4.5056 0 0-0.955733-0.136533-2.184533-0.682667-4.232533-2.730667-12.6976-5.3248-26.487467-8.328533-43.554133-0.8192-4.642133-0.955733-4.778667-5.3248-5.597867-73.181867-12.6976-132.573867-12.561067-187.050667 0.4096-52.974933 12.6976-116.189867 25.258667-182.272 22.801067-7.509333 0.136533-14.199467-0.136533-19.933867-0.136534z m269.380267 98.850134c72.362667 16.930133 141.7216 16.930133 210.670933 0-24.9856-7.918933-62.941867-12.6976-104.584533-12.6976h-0.136533c-42.1888-0.136533-80.2816 4.642133-105.949867 12.6976zM613.034667 946.312533c-54.0672 0-92.842667-32.768-109.7728-93.115733-0.955733-3.6864-1.774933-6.280533-2.4576-8.328533-2.048-7.099733-2.4576-8.328533-2.184534-13.9264 0.136533-2.184533 0.273067-5.461333 0.136534-11.741867-0.136533-12.424533-0.136533-25.122133-0.136534-37.2736 0-14.062933 0.136533-28.672-0.273066-43.008-0.136533-6.826667 0.546133-14.336 6.5536-19.2512 6.9632-5.461333 15.9744-3.003733 21.435733-1.6384 78.779733 20.8896 158.788267 21.026133 237.841067 0.546133 7.918933-2.048 16.247467-3.2768 22.664533 1.911467 7.099733 5.7344 6.826667 15.018667 6.690133 21.162667-0.4096 14.609067-0.4096 29.627733-0.273066 44.100266 0 6.280533 0.136533 12.561067 0.136533 18.705067v16.384c0.273067 28.398933-0.546133 39.048533-19.797333 71.2704-20.48 34.269867-50.107733 52.292267-88.200534 53.521067-9.284267 0.273067-18.705067 0.136533-27.716266 0-12.151467-0.273067-23.483733-0.4096-34.952534 0.4096-3.140267 0.136533-6.417067 0.273067-9.693866 0.273066z m-92.5696-207.394133c0.273067 14.336 0.273067 28.808533 0.136533 42.871467 0 12.151467-0.136533 24.576 0.136533 36.864 0.136533 7.099733 0 10.786133-0.136533 13.1072 0 0.8192-0.136533 1.774933 0 1.911466 0 0.4096 0.682667 2.594133 1.365333 4.9152 0.546133 2.048 1.365333 4.778667 2.4576 8.6016 10.513067 37.410133 35.908267 81.237333 97.0752 76.868267 12.424533-0.8192 24.849067-0.682667 36.864-0.4096 8.738133 0.136533 17.885867 0.273067 26.624 0 30.583467-0.955733 53.521067-15.018667 70.178134-42.871467 17.066667-28.535467 16.930133-35.2256 16.657066-59.938133 0-4.778667-0.136533-10.24 0-16.657067 0-6.144 0-12.424533-0.136533-18.568533-0.136533-14.609067-0.136533-29.9008 0.273067-44.919467v-1.774933c-0.546133 0.136533-1.2288 0.273067-2.048 0.546133-82.7392 21.435733-166.434133 21.2992-248.900267-0.546133-0.136533 0.136533-0.4096 0.136533-0.546133 0zM313.070933 556.782933c-13.789867 0-27.716267-0.273067-41.642666-0.682666-6.9632-0.273067-15.5648-1.365333-20.48-8.465067-4.9152-7.099733-3.003733-15.837867-0.546134-23.483733 18.0224-53.794133 44.919467-95.163733 73.181867-136.260267 31.1296-45.192533 32.904533-88.200533 5.870933-135.031467-6.007467-10.376533-11.195733-15.1552-17.066666-20.616533-7.3728-6.826667-15.5648-14.472533-24.302934-31.9488l-10.513066-20.8896 22.801066 5.3248c109.7728 25.8048 215.995733 25.8048 325.085867-0.136533l22.664533-5.3248-10.376533 20.8896c-8.6016 17.476267-17.339733 26.350933-24.9856 34.133333-6.9632 7.099733-13.1072 13.243733-19.2512 26.077867l-0.4096 0.8192c-6.826667 14.062933-13.380267 27.306667-15.1552 42.1888-3.2768 26.487467 2.8672 51.336533 19.114667 75.912533 3.549867 5.461333 7.236267 10.786133 10.6496 15.9744 23.074133 34.4064 44.782933 66.7648 59.392 108.680533 1.092267 3.003733 1.911467 6.007467 2.8672 9.4208 0.546133 1.774933 1.092267 3.6864 1.6384 5.7344l5.188266 17.2032-17.749333-3.413333c-34.4064-6.5536-66.7648-7.7824-93.934933-8.055467-52.565333-0.546133-104.0384 10.786133-148.138667 21.435734-33.9968 8.328533-68.676267 10.513067-103.901867 10.513066zM270.336 534.1184c0.546133 0 1.2288 0.136533 1.911467 0.136533 49.834667 1.501867 94.890667 1.774933 139.6736-9.147733 45.329067-11.0592 98.304-22.801067 153.463466-22.1184 23.483733 0.273067 50.7904 1.2288 80.145067 5.461333-13.653333-37.956267-33.314133-67.310933-55.978667-101.1712-3.549867-5.3248-7.099733-10.6496-10.786133-16.110933-19.2512-29.0816-26.624-58.709333-22.664533-90.658133 2.321067-18.295467 9.8304-33.860267 17.2032-49.015467l0.4096-0.8192c7.7824-15.9744 15.701333-24.029867 23.3472-31.812267 2.321067-2.321067 4.642133-4.642133 6.826666-7.236266-94.071467 18.978133-186.504533 18.978133-281.122133 0.273066 1.501867 1.365333 2.8672 2.730667 4.5056 4.232534 6.417067 5.870933 13.5168 12.561067 21.162667 25.8048 31.402667 54.203733 29.218133 106.0864-6.690134 158.242133-27.306667 39.867733-53.384533 79.735467-70.4512 130.798933-0.546133 1.2288-0.8192 2.321067-0.955733 3.140267z m192.785067-339.694933c-59.118933-0.546133-111.274667-7.236267-159.470934-20.48-1.774933-0.546133-3.822933-0.955733-5.870933-1.501867-13.1072-3.140267-35.089067-8.465067-35.2256-29.354667-0.136533-19.933867 20.616533-24.712533 33.041067-27.579733 2.594133-0.546133 5.051733-1.2288 7.236266-1.774933 60.6208-17.749333 128.068267-24.029867 206.0288-19.114667 42.5984 2.730667 77.4144 8.192 109.499734 17.2032 2.048 0.546133 4.5056 1.2288 6.9632 1.774933 16.384 4.096 38.912 9.8304 38.5024 29.627734-0.546133 21.162667-24.302933 26.624-40.1408 30.3104-2.321067 0.546133-4.5056 1.092267-6.5536 1.6384-48.3328 12.561067-100.078933 19.114667-154.0096 19.2512z m-178.722134-51.882667v0.4096c0 3.822933 11.0592 6.5536 18.432 8.328533 2.184533 0.546133 4.5056 1.092267 6.5536 1.6384 46.2848 12.834133 96.6656 19.2512 153.736534 19.797334 52.0192-0.273067 101.853867-6.417067 148.2752-18.568534 2.321067-0.546133 4.642133-1.092267 7.099733-1.774933 6.826667-1.6384 22.391467-5.188267 23.210667-9.4208-2.4576-3.140267-16.110933-6.5536-21.845334-8.055467-2.594133-0.682667-5.188267-1.2288-7.509333-1.911466-30.583467-8.6016-63.8976-13.789867-104.8576-16.384-75.3664-4.778667-140.219733 1.2288-198.519467 18.295466-2.730667 0.8192-5.597867 1.501867-8.465066 2.048-4.5056 0.8192-14.882133 3.2768-16.110934 5.597867z" p-id="23964"></path></svg>