<?xml version="1.0" standalone="no"?><!DOCTYPE svg PUBLIC "-//W3C//DTD SVG 1.1//EN" "http://www.w3.org/Graphics/SVG/1.1/DTD/svg11.dtd"><svg t="1727601636512" class="icon" viewBox="0 0 1024 1024" version="1.1" xmlns="http://www.w3.org/2000/svg" p-id="21490" xmlns:xlink="http://www.w3.org/1999/xlink" width="200" height="200"><path d="M512 256h-0.128l0.170667 60.416C587.349333 349.354667 640 424.533333 640 512v128h120.32a42.666667 42.666667 0 0 1 42.069333 49.664l-35.541333 213.333333a42.666667 42.666667 0 0 1-42.112 35.669334h-162.986667l-41.472-249.002667A42.666667 42.666667 0 0 1 562.346667 640H597.333333v-128a170.666667 170.666667 0 0 0-102.4-156.458667 42.666667 42.666667 0 0 1-25.173333-33.536l-0.426667-5.546666V256H384v60.416a42.666667 42.666667 0 0 1-25.6 39.082667A170.794667 170.794667 0 0 0 261.418667 469.333333H384a85.333333 85.333333 0 0 1 85.333333 85.333334v213.333333a85.333333 85.333333 0 0 1-85.333333 85.333333H256a42.666667 42.666667 0 0 0 37.674667 42.368L298.666667 896l255.957333-0.042667 7.082667 42.410667c-2.304 0.213333-4.693333 0.298667-7.04 0.298667H298.666667a85.333333 85.333333 0 0 1-85.333334-85.333334v-341.333333a213.376 213.376 0 0 1 128-195.584V128a42.666667 42.666667 0 0 1 42.666667-42.666667h85.333333a42.666667 42.666667 0 0 1 42.666667 42.666667v128z m96.128 544.426667l-8.746667 1.792-16.426666 4.096 14.976 89.685333h126.805333l14.208-85.333333h-16.853333c-23.466667 0-46.805333-2.858667-69.589334-8.533334a109.653333 109.653333 0 0 0-44.373333-1.706666zM384 512H256v44.8a106.666667 106.666667 0 0 1 0 209.066667V810.666667h128a42.666667 42.666667 0 0 0 42.368-37.674667L426.666667 768v-213.333333a42.666667 42.666667 0 0 0-42.666667-42.666667z m376.32 170.666667h-197.973333l13.568 81.450666 13.056-3.242666a152.32 152.32 0 0 1 63.36-2.346667l10.453333 2.218667c15.530667 3.84 31.36 6.186667 47.36 6.954666l11.946667 0.298667h23.978666l14.250667-85.333333zM256 601.002667v120.618666l2.218667-0.768c21.888-8.661333 37.845333-29.013333 40.149333-53.333333L298.666667 661.333333a64 64 0 0 0-40.448-59.52L256 601.002667zM469.333333 128H384v85.333333h85.333333V128z" fill="#171717" p-id="21491"></path></svg>